<svg width="114" height="97" viewBox="0 0 114 97" fill="none" xmlns="http://www.w3.org/2000/svg">
<path d="M99.7001 76.5648C92.8551 78.9936 83.9377 78.0251 78.4531 74.2553C74.7482 71.7072 72.6756 68.1907 69.2008 65.4937C62.6908 60.4425 51.1986 59.1015 42.7627 62.3944C32.7737 66.3066 26.6733 76.5845 14.4195 76.9224C7.57453 77.1161 0.980646 73.1525 0.101446 68.3249C-0.777753 63.4823 4.16245 58.4608 10.861 57.4029C20.7197 55.805 23.2727 52.4961 13.7289 45.423C8.8472 41.8416 5.57383 37.84 10.7355 33.0108C15.4499 28.6737 25.809 27.0655 34.6618 30.9247C49.3192 37.3415 36.8882 36.7202 48.6659 24.8156C59.7678 13.4856 72.1988 21.464 79.9815 22.0888C87.266 22.6998 94.446 19.4514 101.689 20.3007C112.905 21.6205 117.298 31.5904 109.099 37.2278C103.845 40.8485 95.4507 41.0571 89.6103 44.1565C84.8661 46.6803 85.5905 49.869 90.1755 51.0405C119.324 58.4897 110.743 72.6106 99.7001 76.5648Z" fill="#FEEFE6"/>
<path d="M22.9411 13.0013C17.0075 13.0707 14.583 17.7842 21.9817 21.6741C30.0679 25.9255 36.0707 22.7609 35.9999 19.7558C35.9363 17.0554 30.2737 12.9156 22.9411 13.0013Z" fill="#FEEFE6"/>
<path d="M55.3164 51.7617C55.3164 53.8821 56.1208 55.9156 57.5526 57.415C58.9844 58.9144 60.9263 59.7567 62.9511 59.7567C64.976 59.7567 66.9179 58.9144 68.3497 57.415C69.7815 55.9156 70.5859 53.8821 70.5859 51.7617C70.5809 50.7285 70.3817 49.7065 69.9995 48.754C69.3466 49.2727 68.5754 49.6034 67.7626 49.7134C67.5715 49.737 67.3793 49.7487 67.1869 49.7485C66.4863 49.7527 65.7939 49.5916 65.1609 49.2771C64.528 48.9627 63.9708 48.503 63.5307 47.9322C63.0907 47.3614 62.779 46.6941 62.619 45.9799C62.4589 45.2657 62.4545 44.5229 62.6061 43.8066C60.6482 43.8994 58.7994 44.777 57.4424 46.2579C56.0854 47.7387 55.3242 49.7093 55.3164 51.7617Z" fill="#EC3434"/>
<path d="M94.678 36.9767C94.543 37.1657 94.4462 37.3817 94.3937 37.6113C94.3412 37.8409 94.334 38.0793 94.3726 38.3119C94.4116 38.5519 94.4972 38.7811 94.624 38.9851C94.7509 39.1892 94.9163 39.3639 95.1102 39.4983C95.5066 39.731 95.9714 39.8011 96.4144 39.695C96.8574 39.5889 97.247 39.3142 97.5075 38.9243L104.974 28.4348C105.496 27.6921 105.799 26.8064 105.848 25.886L106.092 20.9131C106.138 19.8586 106.429 18.8317 106.939 17.9214L108.008 15.9258C108.5 15.037 108.759 14.0283 108.76 13.0013V4.54255C108.759 4.34336 108.683 4.15245 108.549 4.0116C108.414 3.87075 108.232 3.79144 108.042 3.79102H95.8874C95.774 3.79277 95.6624 3.82146 95.5611 3.87492C95.4598 3.92837 95.3714 4.0052 95.3026 4.09962L94.6567 5.01585C94.1077 5.79601 93.4161 6.45408 92.6221 6.95177C91.8281 7.44946 90.9475 7.77683 90.0315 7.91484L84.562 8.74792C83.1893 8.96397 81.9533 9.73784 81.1218 10.9018L75.3194 19.0855C75.1012 19.3871 74.9427 19.7312 74.853 20.0977C74.7633 20.4643 74.7444 20.8458 74.7972 21.2201C74.849 21.6 74.9725 21.9653 75.1605 22.2948C75.3484 22.6242 75.5971 22.9111 75.892 23.1389L76.3776 23.5147L81.1004 16.8629C81.2142 16.6794 81.3626 16.5224 81.5366 16.4015C81.7106 16.2805 81.9065 16.1982 82.1121 16.1597C82.3176 16.1212 82.5286 16.1272 82.7318 16.1775C82.9351 16.2277 83.1264 16.3211 83.2938 16.4518C83.4612 16.5825 83.6012 16.7479 83.7052 16.9375C83.8092 17.1272 83.875 17.3372 83.8984 17.5545C83.9218 17.7718 83.9024 17.9918 83.8413 18.201C83.7803 18.4101 83.6789 18.604 83.5435 18.7705L77.9228 26.7047L77.906 26.7191L65.9485 43.5694C65.667 43.943 65.5281 44.4129 65.5589 44.8878C65.5896 45.3626 65.7878 45.8086 66.115 46.139C66.2923 46.2928 66.4978 46.4072 66.7187 46.4752C66.9397 46.5431 67.1716 46.5632 67.4002 46.5342C67.6289 46.5051 67.8495 46.4276 68.0485 46.3063C68.2476 46.1851 68.421 46.0226 68.5581 45.8288L79.9873 29.7204C80.2368 29.4087 80.5904 29.2083 80.9761 29.16C81.3617 29.1117 81.7505 29.2191 82.0632 29.4604C82.3759 29.7016 82.589 30.0586 82.6592 30.4587C82.7294 30.8587 82.6514 31.2717 82.4411 31.6137C82.3026 31.8065 82.2036 32.0271 82.15 32.2618C82.0965 32.4965 82.0897 32.7402 82.1299 32.9777C82.1701 33.2153 82.2566 33.4416 82.384 33.6427C82.5113 33.8438 82.6768 34.0152 82.8702 34.1465C83.2619 34.3841 83.7249 34.4581 84.1665 34.3538C84.6081 34.2494 84.9958 33.9744 85.2522 33.5836L85.7683 32.8577L85.7943 32.8225C85.9146 32.6545 86.0653 32.513 86.2378 32.406C86.4104 32.299 86.6014 32.2287 86.7999 32.199C86.9984 32.1693 87.2005 32.1808 87.3948 32.2329C87.589 32.285 87.7716 32.3767 87.932 32.5027C88.0924 32.6287 88.2276 32.7865 88.3297 32.9672C88.4319 33.1479 88.4991 33.3479 88.5274 33.5558C88.5558 33.7636 88.5448 33.9753 88.495 34.1787C88.4452 34.3822 88.3577 34.5733 88.2374 34.7413L88.2236 34.7621C88.0898 34.9503 87.9938 35.1649 87.9413 35.393C87.8888 35.6211 87.881 35.8579 87.9182 36.0893C87.9571 36.3287 88.0424 36.5573 88.169 36.7608C88.2956 36.9644 88.4608 37.1385 88.6542 37.2725C89.0484 37.5086 89.5128 37.5814 89.9557 37.4767C90.3986 37.3719 90.788 37.0971 91.047 36.7065L92.2258 35.0611C92.4687 34.7218 92.8305 34.4975 93.2314 34.4376C93.6323 34.3776 94.0395 34.4869 94.3635 34.7413C94.6875 34.9958 94.9016 35.3745 94.9589 35.7944C95.0162 36.2142 94.9119 36.6406 94.6689 36.9799L94.678 36.9767Z" fill="#EC3434"/>
<path d="M74.5563 26.0783L74.0722 25.7041C73.1683 25.0025 72.4786 24.0409 72.0872 22.9362C66.2645 20.9132 59.9792 20.8752 54.1346 22.8276C48.2899 24.7799 43.1867 28.6222 39.5582 33.8024C35.9297 38.9825 33.9626 45.2338 33.9397 51.658C33.9167 58.0823 35.8391 64.3488 39.4305 69.5572C43.0219 74.7656 48.0975 78.6478 53.9281 80.6459C59.7586 82.644 66.0439 82.6552 71.881 80.6779C77.718 78.7006 82.8062 74.8365 86.4145 69.6409C90.0228 64.4454 91.9655 58.1857 91.9635 51.7614C91.9593 47.9787 91.2723 44.231 89.9387 40.7155C88.8943 40.813 87.8489 40.5386 86.9719 39.9368C86.1016 39.3335 85.4461 38.4458 85.1075 37.412C84.451 37.6211 83.7585 37.676 83.0795 37.5729C82.4004 37.4698 81.7514 37.2112 81.1786 36.8155C80.6253 36.4325 80.1546 35.9325 79.7967 35.3477L78.7828 36.7772C82.3572 40.869 84.3361 46.2158 84.3287 51.7614C84.3287 56.189 83.075 60.5171 80.726 64.1984C78.377 67.8798 75.0384 70.7491 71.1322 72.4434C67.226 74.1378 62.9277 74.5811 58.781 73.7173C54.6342 72.8535 50.8251 70.7215 47.8354 67.5907C44.8458 64.46 42.8098 60.4712 41.9849 56.1287C41.1601 51.7863 41.5834 47.2852 43.2014 43.1947C44.8194 39.1041 47.5594 35.6079 51.0749 33.1481C54.5904 30.6883 58.7234 29.3754 62.9515 29.3754C65.7194 29.3792 68.4595 29.9541 71.0153 31.0671L74.5563 26.0783Z" fill="#EC3434"/>
<path d="M62.9523 32.5742C59.3283 32.5742 55.7856 33.6996 52.7724 35.808C49.7591 37.9164 47.4106 40.9132 46.0237 44.4193C44.6368 47.9255 44.274 51.7835 44.981 55.5057C45.688 59.2278 47.4331 62.6467 49.9957 65.3302C52.5583 68.0137 55.8232 69.8412 59.3776 70.5816C62.932 71.322 66.6162 70.942 69.9643 69.4897C73.3125 68.0374 76.1742 65.578 78.1876 62.4226C80.201 59.2671 81.2756 55.5573 81.2756 51.7623C81.2872 47.2259 79.7466 42.8353 76.933 39.386L72.1476 46.1306C73.1236 47.8314 73.6397 49.778 73.6409 51.7623C73.6409 53.976 73.014 56.1401 71.8396 57.9808C70.6651 59.8214 68.9957 61.2561 67.0426 62.1033C65.0896 62.9504 62.9404 63.1721 60.867 62.7402C58.7936 62.3083 56.8891 61.2423 55.3943 59.6769C53.8994 58.1115 52.8815 56.1171 52.469 53.9459C52.0566 51.7747 52.2683 49.5241 53.0773 47.4789C53.8863 45.4336 55.2563 43.6855 57.014 42.4556C58.7717 41.2257 60.8383 40.5692 62.9523 40.5692C63.3739 40.5724 63.795 40.6007 64.2135 40.654L69.141 33.7095C67.157 32.9563 65.0626 32.5721 62.9523 32.5742Z" fill="#EC3434"/>
<path d="M62.9518 93.3356C69.1669 93.3481 75.2977 91.8294 80.8489 88.9023C86.4 85.9751 91.2157 81.7216 94.907 76.4853C98.5982 71.2491 101.061 65.177 102.098 58.7596C103.134 52.3422 102.714 45.7596 100.872 39.5436L99.9558 40.8371C99.2621 41.8382 98.2439 42.5403 97.0916 42.8123C95.9394 43.0842 94.732 42.9073 93.6953 42.3146C95.5857 49.0769 95.3958 56.2906 93.1525 62.9335C90.9092 69.5764 86.7262 75.3115 81.1965 79.3258C75.6668 83.3401 69.0708 85.4302 62.3434 85.2996C55.616 85.1691 49.0985 82.8246 43.7146 78.5985C38.3307 74.3724 34.3535 68.4791 32.3467 61.7537C30.3399 55.0284 30.4053 47.8122 32.5336 41.1279C34.662 34.4437 38.7453 28.6304 44.2048 24.5121C49.6644 20.3938 56.2232 18.1793 62.9518 18.1825C65.9683 18.188 68.969 18.6375 71.8661 19.5177C72.0387 18.6699 72.3834 17.871 72.8769 17.1751L76.1614 12.538C70.7116 10.5329 64.9095 9.79729 59.1602 10.3826C53.4109 10.9678 47.8528 12.8598 42.8738 15.9266C37.8948 18.9933 33.6149 23.1609 30.3326 28.1385C27.0504 33.116 24.8449 38.7837 23.8701 44.7459C22.8954 50.7082 23.1748 56.8213 24.6889 62.6588C26.203 68.4963 28.9153 73.9175 32.6365 78.5441C36.3577 83.1706 40.9982 86.8911 46.2342 89.4458C51.4701 92.0005 57.1754 93.328 62.9518 93.3356Z" fill="#EC3434"/>
</svg>
