<svg width="319" height="178" viewBox="0 0 319 178" fill="none" xmlns="http://www.w3.org/2000/svg">
<path d="M82.7861 171.357C128.55 180.961 203.362 182.033 253.855 161.817C300.497 143.145 310.097 74.4955 278.087 35.5565C255.339 7.88471 211.755 -3.15446 169.963 0.767294C120.651 5.39404 107.568 33.9144 74.8467 54.4054C54.4858 67.1543 12.9009 64.0177 5.04727 101.217C-3.89658 143.614 51.1899 164.725 82.7861 171.357Z" fill="#FEEFE6"/>
<path d="M242.91 170.332C248.78 85.1596 293.075 74.6735 300.031 81.8416C314.602 96.8531 264.008 143.851 242.91 170.332Z" fill="#D49BA0"/>
<path d="M295.205 85.2109C270.408 109.387 252.717 138.625 244.111 169.653" stroke="#F2CDBF" stroke-miterlimit="10" stroke-linecap="round"/>
<path d="M282.139 85.9414C283.577 89.5086 284.36 93.2572 284.46 97.0186C289.195 96.1658 294.025 95.7057 298.871 95.6466" stroke="#F2CDBF" stroke-miterlimit="10" stroke-linecap="round"/>
<path d="M265.086 100.705C267.872 104.753 269.926 109.148 271.168 113.699C276.796 112.69 282.56 112.2 288.314 112.242" stroke="#F2CDBF" stroke-miterlimit="10" stroke-linecap="round"/>
<path d="M253.338 122.111C255.66 125.155 257.663 128.368 259.319 131.703C264.765 129.862 270.665 128.971 276.535 129.106" stroke="#F2CDBF" stroke-miterlimit="10" stroke-linecap="round"/>
<path d="M264.429 142.661C260.856 142.442 257.242 142.67 253.749 143.328C252.84 140.914 251.548 138.6 249.918 136.473" stroke="#F2CDBF" stroke-miterlimit="10" stroke-linecap="round"/>
<path d="M242.91 170.333C275.465 126.978 317.025 112.693 318.913 128.359C321.532 150.053 265.386 164.212 242.91 170.333Z" fill="#D49BA0"/>
<path d="M313.737 129.891C288.107 140.123 264.39 153.704 243.711 169.986" stroke="#F2CDBF" stroke-miterlimit="10" stroke-linecap="round"/>
<path d="M304.526 125.365C304.632 128.388 304.289 131.423 303.496 134.374C307.054 134.661 310.497 135.835 313.278 137.713" stroke="#F2CDBF" stroke-miterlimit="10" stroke-linecap="round"/>
<path d="M287.174 132.068C287.845 135.251 288.113 138.493 287.961 141.727C292.776 142.094 297.47 143.483 301.488 145.725" stroke="#F2CDBF" stroke-miterlimit="10" stroke-linecap="round"/>
<path d="M270.748 142.061C272.075 144.555 272.696 147.308 272.555 150.035C277.007 150.326 281.373 151.508 285.183 153.45" stroke="#F2CDBF" stroke-miterlimit="10" stroke-linecap="round"/>
<path d="M257.977 102.289H185.801V108.621H257.977V102.289Z" fill="#F2CDBF"/>
<path d="M255.848 108.621V170.331H249.453V166.954H194.295V170.331H187.926V108.621H255.848Z" fill="#F2CDBF"/>
<path d="M255.843 108.621H187.926V109.888H255.843V108.621Z" fill="#D4A59B"/>
<path d="M248.855 114.152H194.723V127.872H248.855V114.152Z" fill="#D4A59B"/>
<path d="M249.411 112.887H194.168V126.607H249.411V112.887Z" fill="#FADED2"/>
<path d="M248.855 131.459H194.723V145.179H248.855V131.459Z" fill="#D4A59B"/>
<path d="M249.411 130.193H194.168V143.913H249.411V130.193Z" fill="#FADED2"/>
<path d="M248.855 148.768H194.723V162.487H248.855V148.768Z" fill="#D4A59B"/>
<path d="M249.411 147.502H194.168V161.222H249.411V147.502Z" fill="#FADED2"/>
<path d="M203.508 99.2113V89.6074H206.662V99.2113C206.662 99.853 206.042 100.372 205.274 100.372H204.896C204.129 100.372 203.508 99.853 203.508 99.2113Z" fill="white"/>
<path d="M202.936 89.3048C202.936 89.1397 203.097 89 203.299 89H206.867C207.064 89 207.231 89.1355 207.231 89.3048C207.231 89.4699 207.069 89.6096 206.867 89.6096H203.299C203.097 89.6053 202.936 89.4699 202.936 89.3048Z" fill="white"/>
<path d="M204.01 99.055V92.7734H206.155V99.055C206.155 99.5489 205.675 99.95 205.085 99.95C204.489 99.95 204.01 99.5489 204.01 99.055Z" fill="#F0D3D8"/>
<path d="M209.814 99.2113V89.6074H212.969V99.2113C212.969 99.853 212.348 100.372 211.581 100.372H211.202C210.435 100.372 209.814 99.853 209.814 99.2113Z" fill="white"/>
<path d="M209.242 89.3048C209.242 89.1397 209.404 89 209.606 89H213.174C213.371 89 213.537 89.1355 213.537 89.3048C213.537 89.4699 213.376 89.6096 213.174 89.6096H209.606C209.404 89.6053 209.242 89.4699 209.242 89.3048Z" fill="white"/>
<path d="M210.32 99.055V92.7734H212.465V99.055C212.465 99.5489 211.986 99.95 211.395 99.95C210.8 99.95 210.32 99.5489 210.32 99.055Z" fill="#F0D3D8"/>
<path d="M216.504 99.2113V89.6074H219.658V99.2113C219.658 99.853 219.038 100.372 218.27 100.372H217.892C217.125 100.372 216.504 99.853 216.504 99.2113Z" fill="white"/>
<path d="M215.932 89.3048C215.932 89.1397 216.093 89 216.295 89H219.863C220.06 89 220.227 89.1355 220.227 89.3048C220.227 89.4699 220.065 89.6096 219.863 89.6096H216.295C216.093 89.6053 215.932 89.4699 215.932 89.3048Z" fill="white"/>
<path d="M217.006 99.055V92.7734H219.151V99.055C219.151 99.5489 218.671 99.95 218.081 99.95C217.485 99.95 217.006 99.5489 217.006 99.055Z" fill="#F0D3D8"/>
<path d="M223.314 99.2113V89.6074H226.469V99.2113C226.469 99.853 225.848 100.372 225.081 100.372H224.702C223.935 100.372 223.314 99.853 223.314 99.2113Z" fill="white"/>
<path d="M222.742 89.3048C222.742 89.1397 222.904 89 223.106 89H226.674C226.871 89 227.037 89.1355 227.037 89.3048C227.037 89.4699 226.876 89.6096 226.674 89.6096H223.106C222.904 89.6053 222.742 89.4699 222.742 89.3048Z" fill="white"/>
<path d="M223.818 99.055V92.7734H225.963V99.055C225.963 99.5489 225.484 99.95 224.893 99.95C224.298 99.95 223.818 99.5489 223.818 99.055Z" fill="#F0D3D8"/>
<path d="M230.639 99.2113V89.6074H233.793V99.2113C233.793 99.853 233.172 100.372 232.405 100.372H232.027C231.259 100.372 230.639 99.853 230.639 99.2113Z" fill="white"/>
<path d="M230.066 89.3048C230.066 89.1397 230.228 89 230.43 89H233.998C234.195 89 234.362 89.1355 234.362 89.3048C234.362 89.4699 234.2 89.6096 233.998 89.6096H230.43C230.228 89.6053 230.066 89.4699 230.066 89.3048Z" fill="white"/>
<path d="M231.141 99.055V92.7734H233.286V99.055C233.286 99.5489 232.806 99.95 232.216 99.95C231.62 99.95 231.141 99.5489 231.141 99.055Z" fill="#F0D3D8"/>
<path d="M239.251 90.1602H200.387V91.0055H239.251V90.1602Z" fill="#A7C2D9"/>
<path d="M241.759 100.178H198.352V102.288H241.759V100.178Z" fill="#D49BA0"/>
<path d="M201.18 89H200.074V101.23H201.18V89Z" fill="#D49BA0"/>
<path d="M239.697 89H238.592V101.23H239.697V89Z" fill="#D49BA0"/>
<path d="M41.5604 132.478C50.7062 122.883 55.1731 110.298 53.7548 98.1153C52.3365 85.9321 45.0481 74.2934 33.4444 66.2051C33.6109 75.2306 33.1668 84.2646 32.1068 93.2479C31.1024 101.792 29.5579 110.531 32.0008 118.872C33.4545 123.833 36.3112 128.501 41.5604 132.478Z" fill="#BF828B"/>
<path d="M40.7029 143.433C40.7029 113.236 50.2827 103.489 36.2461 71.6211" stroke="#F2CDBF" stroke-miterlimit="10" stroke-linecap="round"/>
<path d="M42.932 76.8613C41.9528 78.609 40.9736 80.3609 39.9944 82.1086C38.2531 81.391 36.3452 80.9562 34.4121 80.8337" stroke="#F2CDBF" stroke-miterlimit="10" stroke-linecap="round"/>
<path d="M33.1523 95.0247C36.8318 95.1471 40.471 95.9787 43.7164 97.4267C45.8716 95.202 48.4356 93.2517 51.2874 91.6602" stroke="#F2CDBF" stroke-miterlimit="10" stroke-linecap="round"/>
<path d="M32.7344 109.673C36.429 109.42 40.2246 110.23 43.3136 111.936C46.3167 109.276 49.7741 106.971 53.5495 105.109" stroke="#F2CDBF" stroke-miterlimit="10" stroke-linecap="round"/>
<path d="M34.4043 121.743C37.1753 121.992 39.8251 123.098 41.7179 124.799C43.7217 122.515 46.1696 120.498 48.9406 118.855" stroke="#F2CDBF" stroke-miterlimit="10" stroke-linecap="round"/>
<path d="M48.1477 131.557C48.1477 131.557 40.3748 117.335 50.3332 101.77C55.8347 93.1713 67.7212 82.7062 82.5452 73.9551C82.5452 73.9551 75.489 106.081 66.7218 119.513C59.9685 129.864 48.1477 131.557 48.1477 131.557Z" fill="#D49BA0"/>
<path d="M77.1802 80.1738C61.8666 100.749 50.9644 123.199 42.3184 146.295" stroke="#F2CDBF" stroke-miterlimit="10" stroke-linecap="round"/>
<path d="M67.4395 85.2695C68.3581 87.0594 69.095 88.9169 69.635 90.8081C72.2344 90.3944 74.8641 90.12 77.5038 89.9807" stroke="#F2CDBF" stroke-miterlimit="10" stroke-linecap="round"/>
<path d="M55.2754 98.1777C57.4255 100.728 59.1669 103.514 60.4287 106.443C64.4817 104.81 68.8426 103.704 73.3044 103.176" stroke="#F2CDBF" stroke-miterlimit="10" stroke-linecap="round"/>
<path d="M48.1211 109.096C50.7507 111.92 52.7495 115.149 53.971 118.569C58.5337 116.96 63.3034 115.757 68.1741 114.985" stroke="#F2CDBF" stroke-miterlimit="10" stroke-linecap="round"/>
<path d="M46.1855 122.232C47.6997 123.647 49.1231 125.133 50.4404 126.678C53.7969 125.525 57.325 124.702 60.9136 124.238" stroke="#F2CDBF" stroke-miterlimit="10" stroke-linecap="round"/>
<path d="M33.489 134.436C33.489 134.436 40.2271 126.445 35.2454 112.586C28.4215 93.5974 0 80.1309 0 80.1309C0 80.1309 7.62145 106.11 13.5672 119.053C19.5886 132.148 33.489 134.436 33.489 134.436Z" fill="#D49BA0"/>
<path d="M35.2438 141.401C35.2438 141.401 31.3675 115.27 3.76367 83.7695" stroke="#F2CDBF" stroke-miterlimit="10" stroke-linecap="round"/>
<path d="M13.7684 89.2793C12.9608 90.8497 12.4208 92.5129 12.1684 94.2058C10.2403 93.7498 8.23149 93.5177 6.22266 93.5219" stroke="#F2CDBF" stroke-miterlimit="10" stroke-linecap="round"/>
<path d="M10.125 106.874C13.8903 106.388 17.7919 106.616 21.436 107.536C22.1427 104.712 23.7326 102.04 26.0039 99.8574" stroke="#F2CDBF" stroke-miterlimit="10" stroke-linecap="round"/>
<path d="M34.2127 112.324C31.6436 114.684 29.6297 117.462 28.3225 120.451C24.754 119.159 20.6405 118.939 16.9004 119.843" stroke="#F2CDBF" stroke-miterlimit="10" stroke-linecap="round"/>
<path d="M24.9375 130.238C27.3955 129.863 29.9293 129.837 32.3974 130.154C33.2555 128.503 34.487 126.988 36.0113 125.713" stroke="#F2CDBF" stroke-miterlimit="10" stroke-linecap="round"/>
<path d="M59.3991 136.637L58.3341 141.66L57.1682 147.186L56.5524 150.082L55.3864 155.612L52.2773 170.333H29.5744L26.4047 155.612L25.2136 150.082L24.5927 147.186L23.3965 141.66L22.3164 136.637H59.3991Z" fill="#D49BA0"/>
<path d="M58.3321 141.66L57.1662 147.186H24.5907L23.3945 141.66H58.3321Z" fill="#FADED2"/>
<path d="M56.5537 150.082L55.3877 155.612H26.406L25.2148 150.082H56.5537Z" fill="#FADED2"/>
<path d="M100.725 162.629H63.541V165.521H100.725V162.629Z" fill="#326894"/>
<path d="M69.9044 135.855C69.9044 135.927 69.8943 136.003 69.8842 136.075L69.3088 140.06L64.1656 175.567C64.0293 176.521 63.0199 177.196 61.9095 177.074C60.8849 176.964 60.1328 176.217 60.1328 175.356C60.1328 175.284 60.1429 175.208 60.153 175.136L65.2306 140.06L65.8666 135.648C66.0079 134.698 67.0123 134.019 68.1227 134.141C69.1574 134.247 69.9044 134.994 69.9044 135.855Z" fill="#4D8AB3"/>
<path d="M69.9031 135.855C69.9031 135.927 69.8931 136.003 69.883 136.075L69.3076 140.06H65.2344L65.8703 135.648C66.0117 134.698 67.0161 134.019 68.1265 134.141C69.1561 134.247 69.9031 134.994 69.9031 135.855Z" fill="#326894"/>
<path d="M84.6609 135.556V175.347C84.6609 176.31 83.7574 177.082 82.642 177.082C82.0868 177.082 81.582 176.888 81.2136 176.572C80.8502 176.259 80.623 175.829 80.623 175.343V135.551C80.623 134.589 81.5316 133.816 82.642 133.816C83.2022 133.816 83.707 134.011 84.0704 134.327C84.4338 134.644 84.6609 135.079 84.6609 135.556Z" fill="#4D8AB3"/>
<path d="M84.0676 134.331C84.4361 134.643 84.6581 135.078 84.6581 135.559V140.059H80.6152V135.559C80.6152 134.597 81.5238 133.824 82.6342 133.824C83.1995 133.82 83.7042 134.014 84.0676 134.331Z" fill="#326894"/>
<path d="M104.985 175.347C104.985 176.217 104.238 176.959 103.214 177.069C102.103 177.187 101.094 176.512 100.958 175.562L95.8143 140.055L95.2389 136.07C95.2288 135.998 95.2188 135.922 95.2188 135.851C95.2188 134.99 95.9708 134.247 96.9954 134.133C98.1058 134.014 99.1102 134.69 99.2516 135.64L99.8875 140.051L104.965 175.127C104.98 175.208 104.985 175.275 104.985 175.347Z" fill="#4D8AB3"/>
<path d="M99.8914 140.055H95.8182L95.2428 136.07C95.2328 135.998 95.2227 135.922 95.2227 135.851C95.2227 134.99 95.9747 134.247 96.9993 134.133C98.1097 134.014 99.1142 134.69 99.2555 135.64L99.8914 140.055Z" fill="#326894"/>
<path d="M108.667 131.067V132.194C108.667 134.166 106.759 135.761 104.402 135.761H66.224C63.8669 135.761 61.959 134.166 61.959 132.194V131.067C61.959 129.096 63.8669 127.5 66.224 127.5H104.402C106.759 127.496 108.667 129.096 108.667 131.067Z" fill="#994403"/>
<path d="M108.669 131.067V132.194C108.669 134.166 106.761 135.761 104.404 135.761H69.7494C67.3923 135.761 65.4844 134.166 65.4844 132.194V131.067C65.4844 129.096 67.3923 127.5 69.7494 127.5H104.404C106.761 127.496 108.669 129.096 108.669 131.067Z" fill="#852E03"/>
<path d="M68.7955 59.9686C68.316 60.7876 67.8315 61.6108 67.4024 62.4002C67.1097 63.8102 67.2813 65.2539 67.4024 66.685C67.5236 68.1161 67.5942 69.5725 67.1147 70.9529C66.6352 72.3333 65.5198 73.6336 63.8744 74.1612C62.8043 74.5032 61.5274 74.5285 60.6996 75.1786C59.7608 75.9174 59.8264 77.1585 60.1696 78.1801C60.4573 79.0371 60.9116 79.8898 61.7242 80.485C62.5368 81.0803 63.8441 81.4686 64.7324 81.038C65.6106 80.6074 66.7766 80.9198 67.4125 81.5699C68.0485 82.22 68.3463 83.0601 68.9722 83.7187C69.8605 84.6558 71.3494 85.1413 72.8081 85.1709C74.2668 85.2004 75.8214 85.0273 76.7955 84.5208C78.88 83.4274 81.4794 82.7013 83.6144 83.7271C84.74 84.2675 85.6283 85.1287 86.8447 85.517C87.8794 85.8463 89.0857 85.783 90.0599 85.3524C91.034 84.9218 91.4075 84.0015 92.0182 83.2965C93.1387 82.0048 95.8542 83.0475 97.7318 82.6211C99.7406 82.1609 101.093 80.3162 100.624 78.6656C100.154 77.015 97.969 76.4282 96.0207 76.1833C94.6832 76.0145 94.133 74.5918 93.8252 73.528C93.5173 72.46 93.5728 71.3497 93.6283 70.2522C93.7444 68.019 94.9608 62.8097 94.1886 62.1089C93.7848 61.7416 92.2706 60.8129 91.7204 60.6061C89.1867 59.6393 86.6529 58.6684 84.1192 57.7017C81.8125 56.8194 79.3949 55.9202 76.846 55.9793C74.3021 56.0258 70.6226 56.8574 68.7955 59.9686Z" fill="#732D02"/>
<path d="M77.5781 80.0747C77.5781 80.0747 66.3326 81.5606 65.1414 84.8914C63.9503 88.2221 70.7793 111.529 70.7793 111.529L96.0462 110.237C96.0462 110.237 97.8834 83.3716 93.8657 81.6873C89.8481 80.0029 77.5781 80.0747 77.5781 80.0747Z" fill="#EBF5FF"/>
<path d="M87.3854 81.0004C87.3854 81.0004 85.745 85.6736 82.7671 86.6952C79.7943 87.721 73.2832 81.4859 73.2832 81.4859C74.5955 80.7894 75.0901 79.1134 75.2517 77.5853C75.4132 76.0318 75.2315 74.6387 75.2315 74.6387L84.2662 76.0909C84.034 78.4296 84.8567 79.658 85.7198 80.3039C86.5375 80.9202 87.3854 81.0004 87.3854 81.0004Z" fill="#FBBD9A"/>
<path d="M85.7188 80.3078C81.4286 80.7806 77.5421 78.9823 75.2506 77.5892C75.4122 76.0357 75.2305 74.6426 75.2305 74.6426L84.2652 76.0948C84.0279 78.4292 84.8557 79.6619 85.7188 80.3078Z" fill="#F0997F"/>
<path d="M111.853 168.627C110.879 169.982 93.9707 161.265 93.9707 159.762C93.9707 158.782 96.1764 157.364 97.7108 156.503C98.5335 156.039 99.1593 155.73 99.1593 155.73L103.106 154.215L104.883 155.013C107.472 158.744 109.945 162.632 111.182 165.338C111.919 166.934 112.217 168.125 111.853 168.627Z" fill="#D43226"/>
<path d="M111.188 165.333C106.343 165.501 99.9376 158.945 97.7168 156.497C98.5395 156.033 99.1654 155.724 99.1654 155.724L103.112 154.209L104.889 155.007C107.483 158.739 109.952 162.627 111.188 165.333Z" fill="#F0997F"/>
<path d="M94.4537 112.23C94.4537 112.23 125.232 115.489 126.277 122.079C127.322 128.665 106.971 157.746 106.971 157.746L99.6525 156.151L109.202 130.155L84.6973 121.459L89.578 112.23H94.4537Z" fill="#002A42"/>
<path d="M104.375 169.377C103.401 170.732 86.4922 162.015 86.4922 160.512C86.4922 159.532 88.6979 158.114 90.2323 157.253C91.055 156.789 91.6808 156.48 91.6808 156.48L95.6278 154.965L97.4045 155.763C99.9938 159.494 102.467 163.382 103.704 166.088C104.44 167.684 104.738 168.875 104.375 169.377Z" fill="#EB4A2A"/>
<path d="M103.708 166.085C98.8622 166.253 92.4571 159.697 90.2363 157.249C91.059 156.785 91.6849 156.476 91.6849 156.476L95.6319 154.961L97.4086 155.759C100.003 159.491 102.471 163.379 103.708 166.085Z" fill="#FBBD9A"/>
<path d="M68.5006 110.023C68.5006 110.023 57.8356 127.661 76.6015 129.565C90.2343 130.949 99.269 130.671 99.5517 131.304C100.016 132.321 90.6835 156.949 90.6835 156.949L99.8747 159.381C99.8747 159.381 118.898 125.208 117.863 122.232C117.01 119.783 90.7592 116.047 90.7592 116.047C92.97 115.169 94.5952 111.974 94.358 107.854L68.5006 110.023Z" fill="#06384F"/>
<path d="M71.4622 108.494C71.4622 108.494 65.3448 119.753 70.2407 124.32C76.0098 129.703 101.241 127.968 102.998 129.872C104.406 131.396 93.2514 156.29 93.2514 156.29" stroke="#27788F" stroke-miterlimit="10" stroke-linecap="round"/>
<path d="M91.4277 155.914L100.321 158.181" stroke="#27788F" stroke-miterlimit="10" stroke-linecap="round"/>
<path d="M91.7013 66.5271C93.8701 66.3215 95.7735 67.2291 95.9532 68.5543C96.1328 69.8794 94.5202 71.1201 92.3514 71.3257C90.1826 71.5312 88.2792 70.6236 88.0995 69.2985C87.9204 67.9734 89.533 66.7327 91.7013 66.5271Z" fill="#F0997F"/>
<path d="M70.2285 66.4187C70.2285 60.1582 74.9831 55.084 81.3679 55.084C87.7528 55.084 92.9313 60.1582 92.9313 66.4187C92.9313 72.6791 89.6657 78.0657 83.6544 78.2599C77.5976 78.4541 70.2285 72.6749 70.2285 66.4187Z" fill="#FBBD9A"/>
<path d="M70.8496 67.8713C74.0597 66.626 76.7045 64.397 77.8906 61.6742C79.5512 63.2403 81.9739 64.1268 84.4319 64.511C86.89 64.8952 89.4136 64.8234 91.7758 64.7685C92.543 65.3131 93.078 66.0814 93.2597 66.9088C93.5272 65.0513 93.29 63.139 92.5682 61.366C86.2086 59.7449 79.8894 58.0226 73.6054 56.2031C72.6666 59.9476 71.7278 63.692 70.8496 67.8713Z" fill="#F0997F"/>
<path d="M76.8458 58.808C78.2136 60.9652 80.8584 62.4005 83.6395 63.1435C86.4206 63.8822 89.3783 64.0047 92.336 64.0764C92.8004 65.4357 92.8963 67.0272 92.8963 68.4203C93.9159 66.4447 94.4408 64.7603 94.5367 63.1224C94.5619 62.6496 94.5619 62.1683 94.5468 61.6617C94.4004 58.217 92.6944 56.2582 90.408 54.7892C88.1165 53.3201 85.3051 52.6953 82.4181 52.6953C79.5663 52.6953 77.7543 53.2357 76.6692 54.1771C76.2856 54.5105 75.9928 54.8905 75.7808 55.3168C75.3165 56.2287 75.8363 57.2207 76.8458 58.808Z" fill="#8C4206"/>
<path d="M67.3353 68.6265C67.2394 65.5659 67.0073 60.327 68.4811 57.8237C69.4451 56.1858 71.2672 54.8222 73.4325 54.5774C75.5978 54.3367 77.9902 55.4554 78.4899 57.2327C77.5309 61.3444 75.0628 65.1184 71.565 68.0777C70.3536 68.5674 68.5669 68.8924 67.3353 68.6265Z" fill="#8C4206"/>
<path d="M76.6621 54.181C80.8463 53.2354 85.5302 54.0628 88.9877 56.2579C91.6678 57.9592 93.5908 60.4203 94.5347 63.1263C94.5599 62.6535 94.5599 62.1722 94.5448 61.6656C94.3984 58.2209 92.6924 56.2622 90.406 54.7931C88.1145 53.324 85.3031 52.6992 82.4161 52.6992C79.5593 52.6992 77.7473 53.2396 76.6621 54.181Z" fill="#A66317"/>
<path d="M65.9851 68.7223C66.3803 67.4301 68.4154 66.75 70.5297 67.2026C72.6441 67.6551 74.0381 69.0697 73.6424 70.3615C73.2472 71.6537 71.2121 72.3338 69.0978 71.8812C66.983 71.4287 65.5894 70.0141 65.9851 68.7223Z" fill="#FBBD9A"/>
<path d="M81.7979 70.3464C82.1296 70.3464 82.3985 69.9873 82.3985 69.5443C82.3985 69.1013 82.1296 68.7422 81.7979 68.7422C81.4662 68.7422 81.1973 69.1013 81.1973 69.5443C81.1973 69.9873 81.4662 70.3464 81.7979 70.3464Z" fill="#2F344D"/>
<path d="M90.1514 70.3503C90.4831 70.3503 90.752 69.9911 90.752 69.5482C90.752 69.1052 90.4831 68.7461 90.1514 68.7461C89.8197 68.7461 89.5508 69.1052 89.5508 69.5482C89.5508 69.9911 89.8197 70.3503 90.1514 70.3503Z" fill="#2F344D"/>
<path d="M88.3945 65.8086C89.4242 65.5165 90.8879 65.58 91.9024 66.1641" stroke="#8C4206" stroke-width="2" stroke-miterlimit="10" stroke-linecap="round"/>
<path d="M82.3125 65.7197C81.1869 65.3013 79.1226 65.39 78.1484 66.3199" stroke="#8C4206" stroke-width="2" stroke-miterlimit="10" stroke-linecap="round"/>
<path d="M86.0719 69.0586C86.3444 69.9113 86.1425 70.9709 85.8145 71.6379" stroke="#D45E4E" stroke-width="2" stroke-miterlimit="10" stroke-linecap="round"/>
<path d="M85.3544 74.1201C84.0219 74.3396 81.6093 73.7022 80.9531 72.7734" stroke="#D45E4E" stroke-width="2" stroke-miterlimit="10" stroke-linecap="round"/>
<path d="M90.1523 83.8457L94.6596 81.5703C94.6596 81.5703 98.4602 81.8405 101.034 85.796C103.593 89.7304 108.414 102.45 109.933 103.011C111.452 103.573 129.971 103.771 129.971 103.771L130.223 108.309C130.223 108.309 107.54 111.319 104.835 110.074C102.13 108.824 93.3725 94.1588 93.3725 94.1588L90.1523 83.8457Z" fill="#FBBD9A"/>
<path d="M89.875 83.3343L90.7431 80.793C90.7431 80.793 95.7198 80.9703 98.2636 82.6378C100.807 84.3052 102.892 88.8391 102.892 88.8391L96.4214 97.5776L89.875 83.3343Z" fill="#DE3B26"/>
<path d="M97.5527 100.857C97.5527 100.857 104.503 95.838 105.573 94.5842C106.103 93.9637 109.863 101.271 109.227 102.166C108.213 103.593 101.878 107.021 101.525 106.822C101.172 106.624 97.5527 100.857 97.5527 100.857Z" fill="#163649"/>
<path d="M95.7314 96.2858C97.826 93.5039 99.9206 90.7261 102.01 87.9442C102.126 87.7922 102.247 87.6318 102.429 87.5305C102.949 87.2392 103.706 87.598 103.918 88.0877C104.135 88.5816 103.979 89.1262 103.817 89.6328C104.488 89.5441 105.094 90.0929 105.175 90.6544C105.261 91.22 104.968 91.7731 104.65 92.2754C102.712 95.3444 99.4613 97.814 95.6254 99.1353C95.4487 98.1813 95.1005 97.1217 95.7314 96.2858Z" fill="#B82621"/>
<path d="M127.107 104.48C129.702 102.956 134.719 99.9333 135.097 99.7898C135.542 99.6209 138.59 99.6083 140.251 100.026C141.911 100.444 143.456 101.402 144.056 102.77C144.223 103.154 144.268 103.665 143.865 103.889C143.602 104.037 143.239 103.986 142.966 103.851C142.694 103.716 142.492 103.5 142.275 103.306C141.164 102.297 140.16 101.901 138.338 101.816C140.498 102.09 141.871 103.205 142.517 104.961C142.643 105.311 142.694 105.755 142.355 105.983C142.088 106.16 141.684 106.114 141.396 105.957C141.109 105.801 140.912 105.556 140.695 105.333C139.902 104.488 138.842 103.826 137.656 103.429C139.307 104.015 140.543 105.362 140.806 106.857C140.846 107.076 140.861 107.308 140.76 107.511C140.659 107.714 140.402 107.878 140.145 107.84C139.943 107.811 139.796 107.676 139.66 107.549C138.762 106.7 138.055 105.797 136.859 105.189C137.949 106.405 138.868 108.381 138.641 108.896C138.57 109.052 138.106 109.322 137.586 108.891C136.995 108.397 136.581 107.553 135.663 106.612C134.093 108.077 131.554 108.756 129.268 108.326C128.526 107.025 127.799 105.721 127.107 104.48Z" fill="#FBBD9A"/>
<path d="M131.818 102.545C133.661 101.992 135.538 101.519 137.446 101.139C137.698 101.089 137.961 101.038 138.218 101.063C138.476 101.089 138.738 101.203 138.849 101.397C138.965 101.6 138.89 101.849 138.733 102.03C138.577 102.212 138.35 102.342 138.117 102.461C137.315 102.879 136.462 103.233 135.563 103.592C135.387 104.723 134.392 105.732 133.1 106.091" fill="#FBBD9A"/>
<path d="M131.818 102.545C133.661 101.992 135.538 101.519 137.446 101.139C137.698 101.089 137.961 101.038 138.218 101.063C138.476 101.089 138.738 101.203 138.849 101.397C138.965 101.6 138.89 101.849 138.733 102.03C138.577 102.212 138.35 102.342 138.117 102.461C137.315 102.879 136.462 103.233 135.563 103.592C135.387 104.723 134.392 105.732 133.1 106.091" stroke="#D45E4E" stroke-miterlimit="10" stroke-linecap="round"/>
<path d="M85.8664 80.3837C86.9465 81.1689 87.6481 85.593 88.2033 88.4045C89.0361 92.6176 93.2759 110.935 93.5282 112.231C93.9775 114.519 102.639 114.362 102.987 113.168C103.053 112.948 100.458 111.939 100.044 110.479C99.6759 109.17 96.7989 83.668 95.4109 82.3256C93.5787 80.5526 85.5182 80.1304 85.8664 80.3837Z" fill="#EB4A2A"/>
<path d="M73.9814 80.3844C74.8849 80.6546 77.7215 85.6951 79.0691 90.3091C81.8855 99.9468 80.2098 114.258 79.0691 116.149C77.9284 118.04 66.8748 118.872 64.9972 118.369C63.907 118.078 62.7209 89.2284 63.4729 85.6064C63.9777 83.1917 73.7089 80.3042 73.9814 80.3844Z" fill="#EB4A2A"/>
<path d="M90.544 112.611C92.8758 111.897 99.6241 110.411 100.558 110.491C101.497 110.572 102.471 110.854 103.061 111.513C103.44 111.935 103.627 112.471 103.803 112.991C104.091 113.835 104.379 114.679 104.666 115.523C104.767 115.819 104.868 116.127 104.818 116.431C104.767 116.735 104.515 117.039 104.172 117.06C103.687 117.094 103.384 116.608 103.208 116.199C102.753 115.148 102.299 114.097 101.85 113.067C102.148 114.363 102.441 115.663 102.738 116.959C102.809 117.267 102.88 117.583 102.794 117.887C102.708 118.191 102.425 118.474 102.077 118.47C101.562 118.462 101.315 117.909 101.199 117.453C100.941 116.439 100.679 115.422 100.28 114.417C100.815 115.844 100.896 117.406 100.502 118.871C100.442 119.095 100.361 119.331 100.179 119.492C99.9976 119.652 99.6746 119.711 99.4828 119.559C99.3364 119.445 99.3061 119.251 99.2859 119.078C99.1295 117.769 98.973 116.456 98.8165 115.148C98.9679 116.528 99.1143 117.951 98.65 119.272C98.5692 119.508 98.4582 119.745 98.2512 119.905C98.0443 120.066 97.7112 120.116 97.4992 119.964C97.2922 119.817 97.267 119.551 97.2569 119.314C97.2216 118.491 97.1862 117.668 97.1812 116.705C96.3131 117.554 95.1118 118.12 93.8449 118.284C92.578 118.449 91.2506 118.204 90.0039 117.871C90.1149 116.338 90.2209 114.802 90.544 112.611Z" fill="#FBBD9A"/>
<path d="M73.2804 89.001C72.5738 86.2697 69.6464 81.8413 67.259 82.7574C65.8912 83.2851 61.9492 84.3869 61.9492 91.6098C61.9492 101.374 63.4836 114.203 67.259 116.352C69.177 117.445 90.1536 118.518 90.1536 118.518L91.688 112.232C91.688 112.232 76.2281 109.834 75.5164 108.061C74.512 105.558 75.158 96.2661 73.2804 89.001Z" fill="#EB4A2A"/>
<path d="M71.4551 87.502C74.0494 94.8389 74.5945 107.322 74.9781 108.073C75.3264 108.757 77.2999 109.044 78.8494 109.487" stroke="#B82621" stroke-miterlimit="10" stroke-linecap="round"/>
<path d="M74.4174 117.471C71.5404 117.231 67.9669 116.762 67.1695 116.264C66.2307 115.677 65.0849 112.806 64.2773 110.848" stroke="#B82621" stroke-miterlimit="10" stroke-linecap="round"/>
<path d="M74 99.6387C75.0347 98.5538 75.4587 96.7554 75.5445 94.5645" stroke="#B82621" stroke-miterlimit="10" stroke-linecap="round"/>
<path d="M187.783 161.875H150.6V164.691H187.783V161.875Z" fill="#326894"/>
<path d="M156.969 135.799C156.969 135.871 156.959 135.942 156.949 136.014L156.373 139.894L151.23 174.472C151.094 175.401 150.084 176.059 148.974 175.941C147.949 175.831 147.197 175.105 147.197 174.269C147.197 174.198 147.207 174.126 147.217 174.054L152.295 139.89L152.931 135.592C153.072 134.668 154.077 134.005 155.187 134.123C156.217 134.237 156.969 134.963 156.969 135.799Z" fill="#4D8AB3"/>
<path d="M156.968 135.801C156.968 135.872 156.957 135.944 156.947 136.016L156.372 139.895H152.299L152.935 135.598C153.076 134.673 154.081 134.011 155.191 134.129C156.216 134.239 156.968 134.965 156.968 135.801Z" fill="#326894"/>
<path d="M171.721 135.507V174.26C171.721 175.197 170.818 175.949 169.703 175.949C169.147 175.949 168.643 175.763 168.274 175.455C167.911 175.151 167.684 174.729 167.684 174.26V135.507C167.684 134.57 168.592 133.818 169.703 133.818C170.263 133.818 170.767 134.004 171.131 134.312C171.499 134.62 171.721 135.043 171.721 135.507Z" fill="#4D8AB3"/>
<path d="M171.132 134.312C171.5 134.616 171.723 135.043 171.723 135.507V139.893H167.68V135.507C167.68 134.57 168.588 133.818 169.699 133.818C170.264 133.818 170.769 134.008 171.132 134.312Z" fill="#326894"/>
<path d="M192.048 174.264C192.048 175.109 191.301 175.835 190.276 175.945C189.166 176.063 188.156 175.404 188.02 174.476L182.877 139.897L182.301 136.018C182.291 135.946 182.281 135.874 182.281 135.803C182.281 134.967 183.033 134.241 184.058 134.131C185.168 134.013 186.173 134.675 186.314 135.6L186.95 139.897L192.028 174.062C192.043 174.129 192.048 174.197 192.048 174.264Z" fill="#4D8AB3"/>
<path d="M186.954 139.893H182.881L182.305 136.014C182.295 135.942 182.285 135.87 182.285 135.799C182.285 134.963 183.037 134.237 184.062 134.127C185.172 134.009 186.177 134.672 186.318 135.596L186.954 139.893Z" fill="#326894"/>
<path d="M195.724 131.067V132.194C195.724 134.166 193.816 135.761 191.459 135.761H153.281C150.924 135.761 149.016 134.166 149.016 132.194V131.067C149.016 129.096 150.924 127.5 153.281 127.5H191.459C193.816 127.496 195.724 129.096 195.724 131.067Z" fill="#994403"/>
<path d="M195.723 131.067V132.194C195.723 134.166 193.815 135.761 191.458 135.761H156.808C154.451 135.761 152.543 134.166 152.543 132.194V131.067C152.543 129.096 154.451 127.5 156.808 127.5H191.458C193.815 127.496 195.723 129.096 195.723 131.067Z" fill="#852E03"/>
<path d="M145.72 80.0747C146.487 79.0236 145.74 77.6558 145.982 76.44C146.053 76.1023 146.214 75.7604 146.537 75.5451C146.86 75.3298 147.37 75.3002 147.663 75.5408C148.021 75.8321 147.9 76.3218 147.895 76.7397C147.885 77.4912 148.314 78.1877 148.501 78.9222C148.955 80.7037 147.824 82.1686 146.744 83.7052C145.387 84.4904 143.559 85.0434 142.419 85.1363C141.702 85.1954 138.033 83.5026 136.599 79.8636C135.877 78.04 135.963 77.2843 136.205 77.0352C136.448 76.7862 136.922 76.668 137.23 76.8622C137.417 76.9761 137.503 77.1703 137.578 77.3519C138.038 78.4452 138.492 79.5386 138.941 80.6742C137.17 79.2895 136.18 77.2337 136.322 75.2073C136.347 74.819 136.488 74.3504 136.932 74.2364C137.215 74.1604 137.533 74.2702 137.745 74.4475C137.957 74.6248 138.088 74.8527 138.214 75.0807C138.85 76.2332 139.491 77.3814 140.385 78.7492C138.764 77.4658 138.073 75.4226 138.648 73.6201C138.744 73.3161 138.961 72.9615 139.34 72.9573C139.723 72.9531 139.951 73.3077 140.087 73.6116C140.733 75.0596 141.379 76.5118 142.025 77.9597C141.101 76.7566 140.708 75.2749 140.935 73.8565C141.016 73.3414 141.329 72.7209 141.954 72.6998C142.308 72.6871 142.636 72.8897 142.823 73.143C143.009 73.3963 143.085 73.6918 143.171 73.9831C143.655 75.6379 144.534 77.2083 145.72 80.0747Z" fill="#FDBD9B"/>
<path d="M136.594 76.9001C137.169 76.7692 137.573 76.9381 137.795 77.6347C138.108 78.6183 138.941 80.8979 139.799 81.4044" stroke="#B0514A" stroke-width="0.5" stroke-miterlimit="10" stroke-linecap="round"/>
<path d="M146.927 82.8066L149.042 86.931L143.449 89.7636L140.961 84.2588L146.927 82.8066Z" fill="#FDBD9B"/>
<path d="M146.693 77.9542C146.289 76.0672 144.588 74.6868 142.645 74.5137L142.615 74.3828C142.615 74.3828 141.6 74.5348 141.262 74.5981C139.051 75.0118 137.683 77.0846 138.138 79.2291C138.597 81.3736 140.737 82.9186 142.983 82.6696C143.326 82.6316 144.341 82.4796 144.341 82.4796L144.311 82.3487C146.067 81.6311 147.097 79.8454 146.693 77.9542Z" fill="#316382"/>
<path d="M142.532 74.3942C144.892 74.0421 147.192 75.5707 147.67 77.8089C148.147 80.0472 146.62 82.1465 144.26 82.4986C141.9 82.8507 139.6 81.3221 139.122 79.0838C138.645 76.846 140.172 74.7463 142.532 74.3942Z" fill="#407C91"/>
<path d="M146.675 77.9573C146.307 76.2392 144.535 75.0614 142.718 75.3315C142.688 75.3358 142.652 75.34 142.622 75.3484C140.861 75.6566 139.73 77.2481 140.093 78.9367C140.457 80.6295 142.168 81.7946 143.955 81.5751C143.985 81.5751 144.02 81.5667 144.05 81.5625C145.862 81.2965 147.043 79.6797 146.675 77.9573Z" fill="#EBF5FF"/>
<path d="M164.083 81.7046L160.64 79.5137C160.64 79.5137 158.394 80.5775 157.198 82.8022C156.002 85.0269 154.417 92.4525 154.417 92.4525L147.987 83.5199L139.795 88.383C139.795 88.383 148.88 107.616 154.351 107.848C159.823 108.08 163.674 103.842 163.674 103.842L164.083 81.7046Z" fill="white"/>
<path d="M136.951 164.82L137.996 170.329L142.306 171.793L147.258 169.814L146.359 164.385L136.951 164.82Z" fill="#FBBD9A"/>
<path d="M150.045 177.088L127.7 176.817C127.7 176.817 127.549 176.429 127.488 175.868C127.398 174.985 127.544 173.689 128.871 172.82C130.749 171.6 133.732 171.431 135.67 170.802C136.831 170.426 137.533 169.468 137.533 169.468L140.712 169.62C140.712 169.62 140.975 171.101 142.156 171.013C143.337 170.924 147.239 169.324 147.239 169.324C149.258 172.212 149.848 174.542 150.01 175.868C150.1 176.648 150.045 177.088 150.045 177.088Z" fill="#502202"/>
<path d="M150.047 177.087L127.702 176.817C127.702 176.817 127.551 176.429 127.49 175.867H150.006C150.102 176.648 150.047 177.087 150.047 177.087Z" fill="#855321"/>
<path d="M163.666 164.82L164.711 170.329L169.021 171.793L173.973 169.814L173.074 164.385L163.666 164.82Z" fill="#FBBD9A"/>
<path d="M176.758 177.088L154.413 176.817C154.413 176.817 154.262 176.429 154.201 175.868C154.111 174.985 154.257 173.689 155.584 172.82C157.462 171.6 160.445 171.431 162.383 170.802C163.544 170.426 164.246 169.468 164.246 169.468L167.425 169.62C167.425 169.62 167.688 171.101 168.869 171.013C170.05 170.924 173.952 169.324 173.952 169.324C175.97 172.212 176.561 174.542 176.723 175.868C176.813 176.648 176.758 177.088 176.758 177.088Z" fill="#502202"/>
<path d="M176.76 177.087L154.415 176.817C154.415 176.817 154.264 176.429 154.203 175.867H176.719C176.815 176.648 176.76 177.087 176.76 177.087Z" fill="#855321"/>
<path d="M162.357 110.363L158.698 115.324C158.698 115.324 137.747 117.991 134.355 122.285C131.225 126.244 135.465 166.382 135.465 166.382H149.855C149.855 166.382 148.755 136.735 149.855 133.991C150.955 131.247 183.95 131.403 185.842 127.68C187.735 123.956 188.366 110.891 188.366 110.891" fill="#112C45"/>
<path d="M188.953 116.086C188.953 116.086 189.766 126.83 185.546 129.4C181.882 131.634 172.564 132.216 172.564 132.216L174.361 165.633L160.602 166.385C160.602 166.385 153.768 127.383 154.091 123.642C154.414 119.902 167.648 117.196 166.745 116.664C166.745 116.664 156.544 113.768 160.325 110.585C160.41 110.513 160.506 110.437 160.602 110.366C161.48 109.716 172.226 110.387 172.226 110.387L182.134 109.627L186.056 113.346L188.953 116.086Z" fill="#163A4A"/>
<path d="M188.444 119.489C188.359 120.016 188.263 120.582 188.162 121.156C186.466 119.354 183.725 116.715 181.308 115.605C176.296 113.3 160.275 111.725 160.275 111.725L160.336 110.581C160.422 110.51 160.518 110.434 160.614 110.362C161.492 109.712 172.238 110.383 172.238 110.383L182.145 109.623L186.067 113.342L188.444 119.489Z" fill="#112C45"/>
<path d="M181.807 76.3188C181.807 76.3188 175.906 82.6933 172.232 82.3682C168.557 82.0432 165.686 78.6406 165.686 78.6406C165.686 78.6406 167.159 78.1847 167.795 76.1711C168.169 75.0102 168.255 73.33 167.619 70.9196L178.541 69.5645C178.541 69.5645 178.465 71.0884 178.95 72.7306C179.364 74.1321 180.181 75.6265 181.807 76.3188Z" fill="#FDBD9B"/>
<path d="M167.796 76.1769C168.169 75.016 168.255 73.3359 167.619 70.9254L178.542 69.5703C178.542 69.5703 178.466 71.0943 178.95 72.7364C176.003 74.8092 171.945 76.0587 167.796 76.1769Z" fill="#F0997F"/>
<path d="M157.583 65.5173C157.751 64.2826 159.525 63.437 161.547 63.6287C163.569 63.8203 165.072 64.9766 164.905 66.2114C164.738 67.4461 162.963 68.2917 160.941 68.1C158.919 67.908 157.415 66.7517 157.583 65.5173Z" fill="#F0997F"/>
<path d="M161.73 65.8464V65.8127C161.73 65.4074 161.337 65.0781 160.852 65.0781H160.363C159.878 65.0781 159.484 65.4074 159.484 65.8127V65.8464C159.484 66.2517 159.878 66.581 160.363 66.581H160.852C161.337 66.581 161.73 66.2517 161.73 65.8464Z" fill="#4B8394"/>
<path d="M160.221 65.8301H159.484V67.5187H160.221V65.8301Z" fill="#4B8394"/>
<path d="M182.236 62.3203C182.236 56.4862 177.411 51.7539 171.455 51.7539C165.499 51.7539 160.674 54.8694 160.674 62.3203C160.674 68.1544 163.379 73.2159 169.789 73.5705C175.73 73.8956 182.236 68.1586 182.236 62.3203Z" fill="#FDBD9B"/>
<path d="M180.965 65.0811C178.992 63.4938 177.528 61.4675 176.811 59.209C175.807 59.4792 174.651 59.3104 173.919 58.8418C171.729 59.5848 169.135 59.4454 167.146 58.5167C165.591 59.1246 163.699 59.0951 162.124 58.3859C161.367 59.247 160.801 60.2222 160.453 61.2522C160.605 59.2428 160.761 57.2334 160.917 55.2197C166.606 54.5485 172.324 54.0799 178.058 53.8182C178.381 53.8013 178.724 53.7929 179.017 53.9153C179.446 54.1011 179.633 54.5232 179.774 54.9116C180.986 58.2465 181.601 61.7335 180.965 65.0811Z" fill="#F0997F"/>
<path d="M183.709 54.5741C183.472 57.5713 183.24 61.4382 183.003 64.3975C182.67 65.4148 181.625 65.3768 180.207 65.7568C178.889 63.2999 178.082 60.6572 177.592 57.7529C176.214 58.0568 174.72 57.9724 173.312 57.5165C171.202 58.1961 168.81 58.2299 166.645 57.5038C165.009 57.9555 163.227 58.0441 161.688 57.5798C161.108 59.0531 160.825 61.2905 160.674 62.8608C160.472 61.4213 159.805 56.9677 159.639 53.9155C159.568 52.6069 159.583 51.5557 159.765 51.1082C160.441 49.4492 162.632 49.9853 163.217 50.5552C163.616 49.7869 164.469 49.1917 165.443 49.0017C166.417 48.8118 167.497 49.0313 168.391 49.5885C169.002 48.6302 170.263 47.9886 171.556 47.9632C172.853 47.9463 174.14 48.55 174.589 49.5843C175.19 49.3057 175.821 49.0524 176.492 48.9426C177.168 48.8371 177.9 48.892 178.48 49.2001C178.758 49.3479 178.995 49.559 179.177 49.8207C179.374 50.0951 179.505 50.4201 179.566 50.7705C180.111 50.1331 181.262 50.0149 182.084 50.3779C182.912 50.741 183.422 51.4797 183.629 52.2438C183.836 53.0037 183.775 53.7973 183.709 54.5741Z" fill="#502202"/>
<path d="M179.178 49.821C178.461 49.5593 177.649 49.4917 176.887 49.6353C175.928 49.8168 175.065 50.3318 174.585 51.1128C174.136 50.1038 172.859 49.3989 171.572 49.4495C170.285 49.5044 169.094 50.3065 168.503 51.5645C167.812 50.8806 166.691 50.5091 165.626 50.6146C164.561 50.7202 163.572 51.2901 163.102 52.185C162.734 51.822 162.068 51.7544 161.533 51.9191C161.003 52.0879 160.584 52.451 160.271 52.8478C160.003 53.1813 159.801 53.5401 159.635 53.9116C159.564 52.603 159.579 51.5518 159.761 51.1043C160.437 49.4453 162.628 49.9814 163.213 50.5513C163.612 49.783 164.465 49.1878 165.439 48.9978C166.413 48.8078 167.494 49.0274 168.387 49.5846C168.998 48.6263 170.26 47.9847 171.552 47.9593C172.849 47.9424 174.136 48.5461 174.585 49.5804C175.186 49.3018 175.817 49.0485 176.488 48.9387C177.164 48.8332 177.896 48.8881 178.477 49.1962C178.759 49.3482 178.996 49.5593 179.178 49.821Z" fill="#6B4019"/>
<path d="M165.045 61.8738C164.117 61.6876 163.097 61.8442 162.305 62.2929" stroke="#502202" stroke-width="2" stroke-miterlimit="10" stroke-linecap="round"/>
<path d="M172.166 62.0268C173.175 61.6572 174.407 61.7592 175.316 62.2858" stroke="#502202" stroke-width="2" stroke-miterlimit="10" stroke-linecap="round"/>
<path d="M167.848 65.25C167.873 66.0859 167.974 66.9175 168.14 67.7407" stroke="#B0514A" stroke-width="2" stroke-miterlimit="10" stroke-linecap="round"/>
<path d="M169.254 70.0632C170.465 70.1012 171.692 69.7213 172.58 69.0332" stroke="#B0514A" stroke-width="2" stroke-miterlimit="10" stroke-linecap="round"/>
<path d="M172.558 65.066C172.863 65.0213 173.167 65.2547 173.237 65.5874C173.307 65.9205 173.117 66.2265 172.813 66.2717C172.508 66.3164 172.204 66.083 172.134 65.7503C172.064 65.4173 172.254 65.1108 172.558 65.066Z" fill="#2D3A5E"/>
<path d="M164.109 65.1617C164.414 65.117 164.718 65.3504 164.788 65.6831C164.858 66.0162 164.668 66.3222 164.363 66.3674C164.058 66.4126 163.755 66.1787 163.685 65.846C163.614 65.513 163.804 65.2065 164.109 65.1617Z" fill="#2D3A5E"/>
<path d="M181.309 63.6277C183.325 63.3951 185.123 64.2048 185.326 65.4358C185.529 66.6668 184.06 67.853 182.044 68.0856C180.028 68.3182 178.229 67.5085 178.027 66.2776C177.824 65.0466 179.293 63.8599 181.309 63.6277Z" fill="#FDBD9B"/>
<path d="M181.191 65.8464V65.8127C181.191 65.4074 181.585 65.0781 182.07 65.0781H182.559C183.044 65.0781 183.437 65.4074 183.437 65.8127V65.8464C183.437 66.2517 183.044 66.581 182.559 66.581H182.07C181.585 66.581 181.191 66.2517 181.191 65.8464Z" fill="#4B8394"/>
<path d="M183.438 65.8301H182.701V67.5187H183.438V65.8301Z" fill="#4B8394"/>
<path d="M180.462 74.9219C180.462 74.9219 174.481 77.9445 173.442 79.0294C172.402 80.1185 172.084 81.6045 172.084 81.6045C172.084 81.6045 170.65 79.0758 170.327 78.8647C170.004 78.6537 167.496 76.6653 167.496 76.6653L164.553 78.5312L160.611 80.2452L160.778 111.915L187.438 113.426L188.124 79.0589L180.462 74.9219Z" fill="#69C5C9"/>
<path d="M172.053 81.791C170.792 90.673 172.982 106.195 169.424 112.224" stroke="#3E7C8A" stroke-width="0.5" stroke-miterlimit="10" stroke-linecap="round"/>
<path d="M172.568 80.2876C172.568 80.2876 173.018 78.8861 174.052 78.1938C175.087 77.5014 180.422 74.8757 180.563 74.8461C180.705 74.8166 183.324 76.3448 183.324 76.3448L179.367 81.0433C179.367 81.0433 175.309 78.6581 174.36 78.8608C173.452 79.0592 172.568 80.2876 172.568 80.2876Z" fill="#9BEBE7"/>
<path d="M171.328 80.2923C171.328 80.2923 171.02 79.3045 170.48 78.7472C169.854 78.1013 167.785 76.2354 167.573 76.2481C167.361 76.2566 165.261 77.3119 164.887 77.9494C164.514 78.5868 164.726 81.601 164.726 81.601C164.726 81.601 168.269 78.781 169.652 79.1018C170.571 79.3171 171.328 80.2923 171.328 80.2923Z" fill="#9BEBE7"/>
<path d="M182.756 75.7949C182.756 75.7949 178.127 79.4338 177.431 83.1276C176.734 86.8214 177.002 106.257 181.287 112.724C185.002 118.335 185.355 136.204 185.355 144.5L198.357 140.751C198.357 140.751 198.302 125.87 194.102 112.091C190.847 101.411 193.971 81.895 192.108 79.9868C190.811 78.6529 182.756 75.7949 182.756 75.7949Z" fill="white"/>
<path d="M177.27 96.5353C177.27 96.5353 176.195 86.2686 177.234 82.9632C178.274 79.6578 181.282 75.4574 182.095 75.3097C183.438 75.069 186.441 77.0152 186.441 77.0152C186.441 77.0152 184.008 80.5359 183.291 85.876C183.226 86.3573 178.456 87.8306 178.456 87.8306C178.456 87.8306 182.181 90.1102 182.13 90.3339C182.075 90.5661 177.27 96.5353 177.27 96.5353Z" fill="#DAE8F7"/>
<path d="M168.734 116.66C171.524 116.66 173.786 115.483 173.786 114.03C173.786 112.578 171.524 111.4 168.734 111.4C165.944 111.4 163.682 112.578 163.682 114.03C163.682 115.483 165.944 116.66 168.734 116.66Z" fill="#407C91"/>
<path d="M175.658 110.586C173.942 110.396 172.226 110.206 170.509 110.016C170.05 109.965 169.555 109.919 169.137 110.083C168.556 110.311 168.289 110.869 168.238 111.443C169.096 111.506 169.954 111.565 170.822 111.683C169.773 112.891 168.485 113.955 167.037 114.828C166.714 115.023 166.376 115.213 166.133 115.474C165.886 115.736 165.75 116.091 165.876 116.407C166.007 116.72 166.381 116.931 166.769 116.994C167.158 117.057 167.557 117.002 168.021 117.024C167.88 117.501 168.167 118.037 168.682 118.269C169.197 118.501 169.894 118.404 170.398 118.083C170.661 118.497 171.171 118.797 171.726 118.864C172.281 118.932 172.872 118.763 173.356 118.649C173.76 119.041 174.381 119.274 174.996 119.265C175.617 119.257 176.223 119.008 176.723 118.636C178.212 117.53 179.398 116.137 180.16 114.596C178.53 113.372 177.015 112.046 175.658 110.586Z" fill="#FBBD9A"/>
<path d="M183.976 83.9016C183.849 81.8626 185.086 78.0253 186.842 77.6243C189.578 77.0037 194.227 80.44 195.448 83.1755C196.67 85.911 200.359 102.675 199.324 104.958C197.906 108.074 179.176 116.453 179.176 116.453L173.371 109.357C173.371 109.357 186.358 103.464 187.13 101.59C187.61 100.416 184.273 88.6845 183.976 83.9016Z" fill="white"/>
<path d="M190.261 80.3887C190.261 80.3887 188.167 82.6809 188.167 86.8095C188.167 90.9382 189.378 100.715 189.096 101.074C188.818 101.433 179.662 106.397 179.662 106.397" stroke="#B8C8E3" stroke-miterlimit="10" stroke-linecap="round"/>
<path d="M188.319 93.0365C186.936 91.6645 185.982 90.0646 185.553 88.3887" stroke="#B8C8E3" stroke-miterlimit="10" stroke-linecap="round"/>
<path d="M183.346 114.769C186.319 113.414 190.619 111.299 193.208 109.572" stroke="#B8C8E3" stroke-miterlimit="10" stroke-linecap="round"/>
<path d="M166.75 76.5176C166.75 76.5176 165.963 79.0505 165.963 83.4535C165.963 90.8411 164.812 111.383 160.163 114.418C156.509 116.803 151.931 116.651 149.852 116.651C149.852 116.651 154.177 114.726 155.792 112.493C157.589 110.011 157.892 102.121 158.129 98.0091C158.382 93.6526 158.851 81.6467 159.447 80.5997C160.739 78.3413 166.75 76.5176 166.75 76.5176Z" fill="white"/>
<path d="M165.242 97.1638C165.242 97.1638 166.296 90.2111 166.296 85.3775C166.296 79.9655 167.361 76.2422 167.361 76.2422C167.361 76.2422 163.687 77.2174 163.283 77.7155C162.879 78.2136 160.977 81.0716 160.002 86.4877C159.841 87.3827 164.182 88.1214 164.182 88.1214C164.182 88.1214 160.835 90.2955 160.835 90.8401C160.84 91.8954 165.242 97.1638 165.242 97.1638Z" fill="#DAE8F7"/>
<path d="M159.244 82.748C159.244 94.526 157.967 103.948 157.352 107.22" stroke="#B8C8E3" stroke-miterlimit="10" stroke-linecap="round"/>
<path d="M157.244 86.9688C157.608 88.6573 158.486 90.3248 159.026 90.8356" stroke="#B8C8E3" stroke-miterlimit="10" stroke-linecap="round"/>
<path d="M159.838 67.4918C159.838 67.4918 160.529 81.0808 170.271 81.6C178.493 82.039 183.056 73.5876 183.056 67.4707" stroke="#163649" stroke-miterlimit="10"/>
<path d="M170.887 81.7695C170.887 81.7695 164.895 100.082 148.275 103.392C127.934 107.445 108.002 102.89 108.002 102.89" stroke="#163649" stroke-miterlimit="10" stroke-linecap="round"/>
<path d="M144.025 82.2891C144.025 82.2891 146.321 93.3916 136.03 99.1412C126.914 104.237 108.002 102.662 108.002 102.662" stroke="#163649" stroke-miterlimit="10" stroke-linecap="round"/>
<path d="M164.024 113.962C164.024 113.962 126.744 114.025 107.746 102.889" stroke="#163649" stroke-miterlimit="10" stroke-linecap="round"/>
<path d="M242.071 35.7917C241.844 32.4652 244.731 29.1725 248.592 28.3577C252.453 27.543 256.865 29.2949 258.551 32.3132C259.994 34.8968 259.5 37.9236 258.803 40.7182C258.111 43.5128 257.248 46.4045 258.041 49.1781C258.712 51.5125 260.514 53.5726 260.872 55.9535C261.362 59.2294 258.606 62.6319 254.785 63.4635C252.625 63.9321 249.834 63.3538 249.147 61.5765C248.511 59.9302 249.965 58.1783 249.672 56.4686C249.425 55.0333 248.027 53.9694 246.876 52.8887C242.636 48.8952 242.576 43.1413 242.071 35.7917Z" fill="#381B07"/>
<path d="M205.011 77.8418C203.078 75.997 201.665 72.6747 201.665 71.556C201.665 70.2347 201.412 68.8796 201.967 67.6427C202.255 67.0053 202.694 66.4269 203.133 65.8528C203.633 65.1985 204.128 64.5441 204.627 63.8898C204.834 63.6196 205.072 63.3326 205.44 63.2481C206.061 63.1088 206.631 63.6956 206.601 64.236C206.566 64.7721 206.142 65.228 205.41 65.705C205.687 64.7214 206.283 63.8012 207.111 63.0666C207.328 62.8724 207.62 62.6782 207.933 62.7373C208.443 62.8387 208.428 63.4466 208.292 63.8687C207.949 64.9283 207.61 65.9879 207.338 66.8997C208.418 68.6221 208.322 70.6653 208.342 72.6072C208.362 74.5491 208.59 76.6513 210.124 78.112C208.65 78.6523 206.914 76.4994 205.011 77.8418Z" fill="#DB8E62"/>
<path d="M204.789 77.614C204.789 77.614 209.912 92.2541 213.783 92.5538C218.467 92.9211 222.273 89.2991 222.273 89.2991L225.332 76.1872L218.397 72.7129L214.571 83.2202L209.11 78.0573L204.789 77.614Z" fill="#DB8E62"/>
<path d="M227.862 78.3737C224.046 77.1663 220.215 75.9843 216.404 74.7601C217.444 70.5935 218.888 65.5995 220.149 64.0037C222.512 61.0192 226.327 60.8672 226.327 60.8672L228.069 65.1773L227.862 78.285C227.862 78.285 227.862 78.3188 227.862 78.3737Z" fill="#1D9FB3"/>
<path d="M224.345 86.8556L213.19 62.7383L199.512 65.706L212.17 92.5588L224.345 86.8556Z" fill="#B23F37"/>
<path d="M222.487 85.5307L212.438 64.0645L201.283 66.5931L212.271 90.0814L222.487 85.5307Z" fill="#EBF5FF"/>
<path d="M208.852 63.4805L209.549 65.0382L205.173 66.0556L204.391 64.4641L208.852 63.4805Z" fill="#678CA8"/>
<path d="M217.75 174.027C217.791 175.61 237.642 175.074 238.535 173.77C239.115 172.917 238.045 170.773 237.228 169.384C236.794 168.637 236.43 168.109 236.43 168.109L233.907 165.154L231.893 165.107C227.426 167.265 222.974 169.612 220.289 171.448C218.704 172.537 217.735 173.441 217.75 174.027Z" fill="#136D94"/>
<path d="M220.291 171.452C224.394 173.613 233.848 170.591 237.23 169.388C236.796 168.64 236.432 168.113 236.432 168.113L233.909 165.158L231.895 165.111C227.428 167.269 222.971 169.616 220.291 171.452Z" fill="#DB8E62"/>
<path d="M226.381 158.598L227.082 165.069L227.335 167.391L227.511 168.987L235.542 168.282L235.607 167.155V167.15L235.673 165.968L236.117 158.319L236.163 157.551L231.272 158.074L226.381 158.598Z" fill="#DB8E62"/>
<path d="M226.379 158.598L227.08 165.069L231.098 165.487H231.103L234.49 165.846L235.671 165.968L236.115 158.319L231.27 158.074L226.379 158.598Z" fill="#CF6E4A"/>
<path d="M220.706 93.8496C220.706 93.8496 217.253 101.837 217.935 113.192C218.616 124.548 224.34 164.15 224.34 164.15L238.604 163.588L236.161 112.466L232.718 96.6358" fill="#1D9FB3"/>
<path d="M253.439 173.867C254.696 175.049 269.389 163.871 269.06 162.397C268.843 161.435 266.365 160.384 264.664 159.772C263.756 159.442 263.069 159.235 263.069 159.235L258.855 158.357L257.285 159.413C255.559 163.478 253.989 167.683 253.373 170.532C253.005 172.212 252.975 173.428 253.439 173.867Z" fill="#136D94"/>
<path d="M253.373 170.528C258.173 169.946 263.024 162.516 264.664 159.768C263.755 159.438 263.069 159.232 263.069 159.232L258.854 158.354L257.285 159.409C255.559 163.474 253.989 167.675 253.373 170.528Z" fill="#DB8E62"/>
<path d="M248.043 157.442L251.379 160.173L255.584 163.614L256.957 164.733L262.524 159.844L261.696 158.945L259.288 156.336L254.675 151.338L248.043 157.442Z" fill="#DB8E62"/>
<path d="M248.043 157.442L251.379 160.173L259.288 156.336L254.675 151.338L248.043 157.442Z" fill="#CF6E4A"/>
<path d="M218.809 101.356C220.197 104.581 230.65 110.263 230.65 110.263C230.65 110.263 230.549 132.776 230.938 138.45C231.327 144.124 245.384 162.648 245.384 162.648L258.557 152.866C258.557 152.866 248.346 138.585 247.645 135.229C246.943 131.869 251.36 114.223 251.36 107.038C251.36 105.713 251.213 104.341 250.971 102.981C250.446 99.984 249.472 97.0543 248.624 94.8802C247.781 92.7062 247.069 91.2793 247.069 91.2793C247.069 91.2793 239.912 92.1489 232.765 93.8206C226.224 95.3488 219.708 97.5566 218.713 100.372C218.613 100.659 218.653 100.993 218.809 101.356Z" fill="#25B2C2"/>
<path d="M218.808 101.356C222.291 103.078 225.92 104.594 229.655 105.881C229.887 105.362 230.119 104.843 230.442 104.323C230.77 104.919 231.103 105.505 231.507 106.312C237.948 104.961 244.449 103.817 250.975 102.981C250.45 99.9837 249.476 97.054 248.628 94.8799C243.348 94.4662 238.059 94.1116 232.769 93.8203C226.228 95.3485 219.712 97.5563 218.717 100.372C218.611 100.659 218.652 100.993 218.808 101.356Z" fill="#1D9FB3"/>
<path d="M255.39 64.3625C254.891 61.8296 243.428 58.5748 239.532 58.8703C231.163 59.5078 225.101 60.7784 223.194 61.7789C221.286 62.7794 219.544 72.1258 219.544 74.7304C219.544 77.8121 220.811 83.8615 220.473 86.3015C219.817 91.0338 216.385 101.056 216.385 101.056L228.998 104.754L230.563 102.449L231.991 105.37L252.836 101.372C252.836 101.372 251.242 87.4877 251.242 85.0519C251.247 82.7175 256.036 67.6299 255.39 64.3625Z" fill="#27B8C1"/>
<path d="M235.918 66.0176C231.729 84.267 231.497 89.4932 230.543 102.314" stroke="#51DBDB" stroke-miterlimit="10" stroke-linecap="round"/>
<path d="M236.473 70.2185C236.861 70.2185 237.175 69.9558 237.175 69.6317C237.175 69.3076 236.861 69.0449 236.473 69.0449C236.086 69.0449 235.771 69.3076 235.771 69.6317C235.771 69.9558 236.086 70.2185 236.473 70.2185Z" fill="#136D94"/>
<path d="M234.719 78.2009C235.107 78.2009 235.421 77.9382 235.421 77.6141C235.421 77.2901 235.107 77.0273 234.719 77.0273C234.332 77.0273 234.018 77.2901 234.018 77.6141C234.018 77.9382 234.332 78.2009 234.719 78.2009Z" fill="#136D94"/>
<path d="M233.366 86.615C233.753 86.615 234.067 86.3523 234.067 86.0282C234.067 85.7041 233.753 85.4414 233.366 85.4414C232.978 85.4414 232.664 85.7041 232.664 86.0282C232.664 86.3523 232.978 86.615 233.366 86.615Z" fill="#136D94"/>
<path d="M232.664 96.2615C233.052 96.2615 233.366 95.9988 233.366 95.6747C233.366 95.3506 233.052 95.0879 232.664 95.0879C232.277 95.0879 231.963 95.3506 231.963 95.6747C231.963 95.9988 232.277 96.2615 232.664 96.2615Z" fill="#136D94"/>
<path d="M211.596 77.3133L213.685 77.4526L213.847 77.4652L227.858 74.3878C228.817 73.9614 228.979 73.3029 228.752 72.7667C228.464 72.0997 227.53 71.7873 226.728 72.0237L213.362 75.9751L213.226 76.0764L211.596 77.3133Z" fill="#136D94"/>
<path d="M211.596 77.3111L212.171 77.3491L213.685 77.4504C213.64 77.4209 213.589 77.3913 213.549 77.3533C213.372 77.2056 213.266 76.9861 213.342 76.7877C213.372 76.7032 213.433 76.6146 213.393 76.5344C213.372 76.4964 213.332 76.471 213.302 76.4415C213.201 76.3444 213.186 76.1966 213.221 76.0742L212.025 76.9861L211.596 77.3111Z" fill="#D68A5A"/>
<path d="M211.596 77.3132L212.171 77.3514C212.111 77.2962 212.07 77.2325 212.045 77.1604C212.025 77.1052 212.02 77.0458 212.025 76.9863L211.596 77.3132Z" fill="#24151A"/>
<path d="M228.15 79.9182C226.772 77.7821 225.4 75.646 223.931 73.5058C222.841 72.7965 221.614 72.2604 220.362 71.8594C218.868 72.2646 217.465 73.0118 216.309 74.0166C216.027 74.2656 215.729 74.616 215.86 74.9495C215.956 75.1943 216.259 75.3125 216.542 75.2957C216.819 75.2788 217.082 75.1521 217.334 75.0297C218.096 74.6582 218.858 74.2825 219.742 73.9237C219.989 74.101 220.236 74.2783 220.423 74.4598C219.908 74.464 219.393 74.4725 218.777 74.6202C217.793 75.0086 216.829 75.4519 215.895 75.95C215.633 76.0893 215.345 76.275 215.315 76.5537C215.29 76.7816 215.456 76.9885 215.673 77.0856C215.89 77.1827 216.138 77.1869 216.38 77.17C217.258 77.1193 218.131 76.8534 218.853 76.3975C219.146 76.4692 219.439 76.541 219.661 76.6592C219.282 76.7183 218.904 76.7774 218.55 76.9252C218.197 77.0729 217.874 77.3178 217.718 77.6512C217.561 77.9847 217.617 78.4069 217.824 78.7573C217.622 78.8206 217.511 79.0401 217.521 79.2385C217.531 79.4369 217.632 79.6142 217.733 79.7831C217.95 80.1419 218.187 80.4881 218.444 80.8174C218.692 81.1255 218.974 81.4295 219.363 81.5646C219.752 81.6954 220.261 81.6026 220.519 81.1973C221.559 82.7001 223.507 83.5824 225.395 83.4136C226.52 82.3962 227.459 81.2015 228.15 79.9182Z" fill="#DB8E62"/>
<path d="M222.142 74.7052C221.642 74.5316 221.112 74.4723 220.572 74.4258" stroke="#A8473E" stroke-width="0.5" stroke-miterlimit="10" stroke-linecap="round"/>
<path d="M221.13 76.551C220.625 76.5152 220.131 76.5286 219.752 76.5867" stroke="#A8473E" stroke-width="0.5" stroke-miterlimit="10" stroke-linecap="round"/>
<path d="M217.893 78.6291C218.594 78.3021 219.755 78.1152 220.553 78.2001" stroke="#A8473E" stroke-width="0.5" stroke-miterlimit="10" stroke-linecap="round"/>
<path d="M220.299 81.0829C220.051 80.7494 219.834 80.2006 219.738 79.8164" stroke="#A8473E" stroke-width="0.5" stroke-miterlimit="10" stroke-linecap="round"/>
<path d="M219.901 80.5039C219.583 80.5397 219.25 80.5888 218.992 80.5665" stroke="#A8473E" stroke-width="0.5" stroke-miterlimit="10" stroke-linecap="round"/>
<path d="M224.545 82.8698C224.545 82.8698 241.988 95.243 246.698 93.8499C248.57 93.2926 250.428 88.7503 251.775 84.5204C253.017 80.6324 253.824 77.0146 253.824 77.0146L243.942 73.5234C243.942 73.5234 243.281 77.2721 242.614 80.32C242.175 82.3759 241.731 84.1109 241.494 84.1616C240.484 84.398 227.679 79.6319 227.679 79.6319L224.545 82.8698Z" fill="#DB8E62"/>
<path d="M242.613 80.3239C244.97 81.6157 248.675 83.5196 251.769 84.5243C253.011 80.6363 253.818 77.0185 253.818 77.0185L243.936 73.5273C243.936 73.5273 243.28 77.276 242.613 80.3239Z" fill="#CF6E4A"/>
<path d="M253.817 81.4178C249.492 80.7297 246.06 80.1345 241.926 78.8976C242.511 74.8365 243.879 67.4911 244.99 65.2284C245.777 63.6243 248.871 60.8043 252.359 62.0243C255.846 63.2443 257.184 65.1693 256.815 70.2478C256.679 72.0546 254.625 77.7409 253.817 81.4178Z" fill="#32C9CF"/>
<path d="M232.736 60.7185C232.736 60.7185 233.751 64.56 235.709 65.683C237.668 66.8059 245.082 59.8995 245.082 59.8995C243.805 58.9033 243.497 56.9487 243.512 55.2179C243.527 53.4533 243.881 51.9336 243.881 51.9336L234.846 54.1161C234.937 55.982 234.755 57.3287 234.473 58.2954C233.857 60.3934 232.736 60.7185 232.736 60.7185Z" fill="#DB8E62"/>
<path d="M234.477 58.2954C238.641 59.0341 241.825 56.8178 243.511 55.2179C243.526 53.4533 243.88 51.9336 243.88 51.9336L234.845 54.1161C234.941 55.9862 234.759 57.3287 234.477 58.2954Z" fill="#CF6E4A"/>
<path d="M236.042 65.8176C235.926 65.8007 236.507 63.2088 236.8 62.985C237.092 62.7613 244.214 57.5435 244.638 57.7377C245.259 58.0163 246.283 59.6711 246.283 59.6711C246.283 59.6711 244.82 61.3302 242.059 63.2045C240.161 64.4921 237.133 65.9738 236.042 65.8176Z" fill="#136D94"/>
<path d="M236.04 65.8045C236.196 65.6737 235.878 63.1028 235.696 62.8664C235.106 62.0854 234.106 60.0507 234.106 58.666C234.106 58.666 232.31 59.2359 232.087 59.5652C231.87 59.8987 232.845 62.3345 233.597 63.4954C234.874 65.4499 235.913 65.9101 236.04 65.8045Z" fill="#136D94"/>
<path d="M231.176 48.571C231.347 47.3108 229.812 46.1307 227.749 45.9351C225.686 45.7395 223.874 46.6025 223.704 47.8627C223.533 49.1229 225.067 50.3031 227.131 50.4987C229.194 50.6942 231.005 49.8312 231.176 48.571Z" fill="#CF6E4A"/>
<path d="M248.846 44.5899C248.846 38.6377 243.924 33.8125 237.852 33.8125C231.78 33.8125 226.859 38.6377 226.859 44.5899C226.859 50.5422 229.893 56.4607 236.046 56.2497C242.107 56.0386 248.846 50.5422 248.846 44.5899Z" fill="#DB8E62"/>
<path d="M246.408 47.1449C245.131 45.984 244.324 43.793 244.127 42.8601C242.905 42.5646 241.427 41.5852 240.685 40.2639C238.822 41.8216 231.746 42.6996 229.384 42.1846C227.703 43.9197 227.652 44.7808 227.057 46.9971C226.673 44.2912 226.845 41.5303 227.557 38.8708C231.983 37.6761 236.314 36.2366 240.513 34.5564C241.23 34.2694 242.088 33.9781 242.774 34.3158C243.213 34.5311 243.44 34.949 243.668 35.3332C244.616 36.95 245.979 38.398 247.635 39.5504C248.064 39.8502 248.553 40.1879 248.574 40.6522C248.589 40.9562 248.397 41.2348 248.22 41.5008C247.428 42.7208 247.564 45.6547 246.408 47.1449Z" fill="#CF6E4A"/>
<path d="M224.993 40.942C224.957 43.1963 227.153 47.8779 227.153 47.8779C227.153 47.8779 227.168 44.0237 229.268 41.5204C233.613 41.5204 238.429 41.3515 241.094 39.283C241.866 40.9209 243.193 41.875 244.793 42.3224C244.743 44.3656 245.863 46.278 246.565 47.9961C247.933 47.2996 248.962 47.5951 250.078 46.4933C250.724 44.4965 251.41 41.3768 251.213 39.4476C251.052 37.8941 250.547 36.3237 249.538 35.0193C249.301 34.7069 249.028 34.4072 248.73 34.1286C247.176 32.689 244.723 31.849 242.477 32.3175C241.235 31.068 239.317 30.3292 237.404 30.2406C235.486 30.1519 233.583 30.6543 231.912 31.4521C228.657 33.0014 226.113 35.3992 225.28 38.7342C225.099 39.4518 225.008 40.1906 224.993 40.942Z" fill="#412408"/>
<path d="M224.992 40.9423C225.083 40.6511 225.194 40.364 225.32 40.0812C225.941 38.7092 226.951 37.4765 228.111 36.3747C229.863 34.6945 232.038 33.2466 234.607 32.6471C237.176 32.0519 240.159 32.4276 242.077 33.9769C244.5 33.1157 247.473 33.5843 249.532 35.0154C249.295 34.703 249.022 34.4033 248.725 34.1246C247.17 32.6851 244.717 31.8451 242.471 32.3136C241.229 31.0641 239.311 30.3253 237.399 30.2367C235.481 30.148 233.578 30.6504 231.907 31.4482C228.652 32.9975 226.108 35.3953 225.275 38.7303C225.098 39.4522 225.007 40.1909 224.992 40.9423Z" fill="#664216"/>
<path d="M248.176 46.0181C250.188 45.5875 252.124 46.2342 252.5 47.4631C252.876 48.692 251.55 50.0369 249.538 50.468C247.526 50.8985 245.59 50.2518 245.214 49.0229C244.838 47.7945 246.164 46.4491 248.176 46.0181Z" fill="#DB8E62"/>
<path d="M238.599 49.215C238.863 49.215 239.078 48.9277 239.078 48.5733C239.078 48.2189 238.863 47.9316 238.599 47.9316C238.334 47.9316 238.119 48.2189 238.119 48.5733C238.119 48.9277 238.334 49.215 238.599 49.215Z" fill="#411F00"/>
<path d="M229.792 49.215C230.057 49.215 230.272 48.9277 230.272 48.5733C230.272 48.2189 230.057 47.9316 229.792 47.9316C229.527 47.9316 229.312 48.2189 229.312 48.5733C229.312 48.9277 229.527 49.215 229.792 49.215Z" fill="#411F00"/>
<path d="M231.207 44.6862C230.288 44.4187 229.233 44.4866 228.375 44.8772" stroke="#412408" stroke-width="2" stroke-miterlimit="10" stroke-linecap="round"/>
<path d="M237.855 45.0197C238.885 44.6416 240.142 44.7478 241.066 45.283" stroke="#412408" stroke-width="2" stroke-miterlimit="10" stroke-linecap="round"/>
<path d="M233.089 49.0625C233.008 49.4762 233.013 50.464 233.099 50.8651" stroke="#A8473E" stroke-width="2" stroke-miterlimit="10" stroke-linecap="round"/>
<path d="M233.629 52.6479C234.966 53.0917 236.365 52.8508 237.086 51.9336" stroke="#A8473E" stroke-width="2" stroke-miterlimit="10" stroke-linecap="round"/>
<path d="M78.4639 39.3151C88.6915 39.3151 96.9825 32.3806 96.9825 23.8265C96.9825 15.2724 88.6915 8.33789 78.4639 8.33789C68.2364 8.33789 59.9453 15.2724 59.9453 23.8265C59.9453 32.3806 68.2364 39.3151 78.4639 39.3151Z" fill="#FFA8B1"/>
<path d="M66.365 18.6158C70.418 12.3005 78.4332 20.7772 78.4332 20.7772C78.4332 20.7772 86.4635 13.5331 90.5013 18.2401C94.6956 23.1243 78.4332 34.5012 78.4332 34.5012C78.4332 34.5012 62.9177 23.9897 66.365 18.6158Z" fill="#B82621"/>
<path d="M65.0293 25.7039L70.647 25.7546L72.3933 20.0387L75.9921 30.9048L78.8388 17.7422L81.9328 29.5961L83.7801 21.0012L85.7586 25.5097L91.9012 25.649" stroke="white" stroke-miterlimit="10" stroke-linecap="round"/>
<path d="M129.726 63.7959C140.18 63.7959 148.654 56.7083 148.654 47.9653C148.654 39.2223 140.18 32.1348 129.726 32.1348C119.273 32.1348 110.799 39.2223 110.799 47.9653C110.799 56.7083 119.273 63.7959 129.726 63.7959Z" fill="#FFA8B1"/>
<path d="M139.828 48.666L125.343 55.6061C122.587 56.9274 119.074 56.1296 117.499 53.8288C116.712 52.6764 116.555 51.3677 116.939 50.1773C117.322 48.9868 118.246 47.9272 119.629 47.2644L134.115 40.3243C136.866 39.0072 140.378 39.8051 141.958 42.11C142.746 43.2625 142.902 44.5711 142.513 45.7574C142.13 46.9478 141.206 48.0074 139.828 48.666Z" fill="white"/>
<path d="M139.827 48.666L132.579 52.136L126.865 43.7944L134.113 40.3243C136.864 39.0072 140.377 39.8051 141.957 42.11C142.744 43.2625 142.901 44.5711 142.512 45.7574C142.128 46.9478 141.205 48.0074 139.827 48.666Z" fill="#B82621"/>
<path d="M177.858 34.2487C188.086 34.2487 196.377 27.3142 196.377 18.7601C196.377 10.206 188.086 3.27148 177.858 3.27148C167.631 3.27148 159.34 10.206 159.34 18.7601C159.34 27.3142 167.631 34.2487 177.858 34.2487Z" fill="#FFA8B1"/>
<path d="M187.296 10.988V21.605C187.296 24.1928 185.726 26.6159 183.107 28.0428L177.858 30.6052L173.042 27.9921C170.176 26.6075 168.414 24.0662 168.414 21.3264V10.988L177.792 8.74219L177.858 8.75907L187.296 10.988Z" fill="white"/>
<path d="M187.296 10.9887V21.6057C187.296 24.1935 185.726 26.6166 183.107 28.0435L177.857 30.6059V8.75977L187.296 10.9887Z" fill="#F2E4E5"/>
<path d="M180.032 13.6719H175.676V25.6693H180.032V13.6719Z" fill="#B82621"/>
<path d="M185.026 17.8496H170.682V21.4927H185.026V17.8496Z" fill="#B82621"/>
</svg>
