<svg enable-background="new 0 0 512 512" height="512" viewBox="0 0 512 512" width="512" xmlns="http://www.w3.org/2000/svg"><g id="_x38_91_x2C__Arrows_x2C__Play_x2C__Button"><g><g><path d="m228.5 300.438 85.623-49.436-85.623-49.434z"/><path d="m83.5 406.003c-8.271 0-15 6.729-15 15 0 8.272 6.729 15 15 15s15-6.728 15-15-6.729-15-15-15z"/><path d="m263.5 86.002c-90.981 0-165 74.019-165 165 0 90.982 74.019 165.001 165 165.001s165-74.018 165-165.001c0-90.981-74.019-165-165-165zm63.123 169.331-100.623 58.095c-3.308 1.908-7.5-.468-7.5-4.33v-116.19c0-3.836 4.164-6.257 7.5-4.33l100.623 58.095c1.547.893 2.5 2.544 2.5 4.33s-.953 3.436-2.5 4.33z"/><path d="m468.5 81.002c0-13.785-11.215-25-25-25s-25 11.215-25 25 11.215 25 25 25 25-11.214 25-25z"/><circle cx="453.503" cy="371.005" r="10"/><circle cx="373.503" cy="451" r="10"/><circle cx="163.502" cy="441" r="10"/><circle cx="53.502" cy="161" r="10"/><circle cx="113.497" cy="61" r="10"/><circle cx="453.503" cy="161" r="10"/></g></g></g></svg>