<svg width="111" height="94" viewBox="0 0 111 94" fill="none" xmlns="http://www.w3.org/2000/svg">
<path d="M97.4057 91.4494C90.7405 94.9189 82.0573 93.5354 76.7168 88.1503C73.1091 84.5105 71.091 79.4872 67.7074 75.6346C61.3684 68.4191 50.1781 66.5035 41.9637 71.2073C32.2371 76.7958 26.2969 91.4775 14.365 91.9601C7.6998 92.2369 1.27911 86.575 0.423001 79.6789C-0.433107 72.7614 4.37734 65.5883 10.9 64.0771C20.4997 61.7945 22.9857 57.0679 13.6926 46.9641C8.93905 41.8482 5.75166 36.1321 10.7777 29.2337C15.3684 23.0382 25.4554 20.7409 34.0756 26.2537C48.348 35.4199 36.2436 34.5324 47.712 17.527C58.5222 1.34235 70.6267 12.7393 78.205 13.6319C85.2981 14.5047 92.2896 9.8644 99.3421 11.0776C110.264 12.9628 114.541 27.2046 106.558 35.2574C101.441 40.4296 93.2679 40.7276 87.5809 45.1549C82.9613 48.7602 83.6667 53.3151 88.1313 54.9886C116.515 65.6295 108.158 85.8009 97.4057 91.4494Z" fill="#FEEFE6"/>
<path d="M22.6623 0.650307C16.8846 0.749408 14.5237 7.48255 21.7281 13.0392C29.6019 19.1122 35.447 14.5916 35.3782 10.2989C35.3161 6.44152 29.8023 0.527928 22.6623 0.650307Z" fill="#FEEFE6"/>
<path d="M89.709 57.4807C70.8192 83.6156 40.1808 83.6156 21.291 57.4807C30.7281 44.3912 43.1102 37.8574 55.5079 37.8574C67.8898 37.8577 80.2719 44.3912 89.709 57.4807Z" fill="#EC3434"/>
<path d="M89.709 57.4778C84.8798 64.1743 79.2744 69.1511 73.2893 72.4083C61.873 78.6418 49.1111 78.6418 37.7107 72.3919C31.7413 69.1345 26.1361 64.1577 21.291 57.4778C26.1202 50.7813 31.7256 45.788 37.7107 42.5308C41.6849 40.3482 45.8175 38.9428 49.9977 38.2814C51.8343 38.0002 53.671 37.8516 55.5077 37.8516C57.3444 37.8516 59.1811 38.0002 61.018 38.298C65.1981 38.9428 69.3308 40.3648 73.2893 42.531C79.2744 45.788 84.8796 50.7816 89.709 57.4778Z" fill="white"/>
<path d="M55.5103 37.8516C57.833 37.8516 60.1557 38.0396 62.4786 38.416C69.6068 41.3224 74.6726 48.5571 74.6726 57.0464C74.6726 68.1073 66.0827 77.0776 55.5103 77.0776C44.9181 77.0776 36.3281 68.1073 36.3281 57.0464C36.3281 48.5573 41.3939 41.3017 48.5423 38.3952C50.8647 38.0396 53.1876 37.8516 55.5103 37.8516Z" fill="#EC3434"/>
<path d="M55.6813 67.2834C50.4928 67.2834 46.2754 62.8793 46.2754 57.461C46.2754 52.0429 50.4928 47.6387 55.6813 47.6387C60.8698 47.6387 65.0875 52.0427 65.0875 57.461C65.0875 62.8793 60.8698 67.2834 55.6813 67.2834Z" fill="#CECED0"/>
<path d="M90.5905 56.7848C82.1073 45.0219 70.0128 36.7396 55.6232 36.7032C55.5746 36.7029 55.5258 36.7043 55.4773 36.7043C41.1179 36.7147 28.8788 45.0399 20.4095 56.7848C20.2614 56.9906 20.1873 57.2352 20.1875 57.4797C20.1875 57.7242 20.2617 57.9687 20.4106 58.1745C29.5967 70.884 42.1876 78.2636 55.5066 78.2636C69.6477 78.2636 81.9764 70.093 90.5896 58.1745C90.7439 57.9614 90.8127 57.6961 90.8127 57.4799C90.8129 57.2354 90.739 56.9906 90.5905 56.7848ZM68.2615 73.4899C72.8406 69.6028 75.776 63.6784 75.776 57.0459C75.776 51.287 73.5855 45.9862 69.8722 42.1129C70.8506 42.5476 71.8206 43.0277 72.78 43.5525C78.8444 46.853 84.1113 51.812 88.3192 57.4785C83.0908 64.52 76.3639 70.3202 68.2615 73.4899ZM41.1071 42.1238C37.4063 45.9968 35.224 51.2918 35.224 57.0459C35.224 63.6708 38.1552 69.5899 42.7297 73.4772C34.7393 70.3387 28.0587 64.6775 22.6819 57.4767C27.5544 50.9152 33.7023 45.4066 41.1071 42.1238ZM37.431 57.0459C37.431 48.2595 43.8813 40.6527 48.7825 39.6707C50.8116 39.2703 53.4839 38.9813 56.1511 39.0309C58.4146 39.0744 60.6302 39.3411 62.7408 39.7898C69.3385 42.7944 73.5687 49.4803 73.5687 57.0459C73.5687 67.4558 65.467 75.9252 55.5095 75.9252C45.5414 75.925 37.431 67.4558 37.431 57.0459Z" fill="#3E3E3E"/>
<path d="M55.6831 46.4863C49.8885 46.4863 45.1738 51.4091 45.1738 57.4606C45.1738 63.512 49.8885 68.4355 55.6831 68.4355C61.4776 68.4355 66.1923 63.5122 66.1923 57.4606C66.1923 51.4089 61.4776 46.4863 55.6831 46.4863ZM55.6831 66.1308C51.1052 66.1308 47.3809 62.2416 47.3809 57.4606C47.3809 52.6802 51.1052 48.791 55.6831 48.791C60.2609 48.791 63.9852 52.6802 63.9852 57.4606C63.9852 62.2416 60.2609 66.1308 55.6831 66.1308Z" fill="#3E3E3E"/>
<path d="M55.6816 52.9961C55.0716 52.9961 54.5781 53.5121 54.5781 54.1484C54.5781 54.7848 55.0716 55.3008 55.6816 55.3008C56.8229 55.3008 57.7518 56.2704 57.7518 57.4619C57.7518 58.0982 58.2453 58.6142 58.8553 58.6142C59.4654 58.6142 59.9589 58.0982 59.9589 57.4619C59.9589 54.9998 58.0407 52.9961 55.6816 52.9961Z" fill="#3E3E3E"/>
<path d="M39.7636 31.6157C40.0547 32.1799 40.7278 32.3832 41.2582 32.0827C41.7949 31.7805 41.9953 31.0817 41.7053 30.5219L36.9927 21.4055C36.7038 20.8457 36.0357 20.6373 35.497 20.939C34.9613 21.2412 34.7609 21.9406 35.0509 22.5005L39.7636 31.6157Z" fill="#3E3E3E"/>
<path d="M55.5 28.3804C56.11 28.3804 56.6035 27.8644 56.6035 27.2281V16.8867C56.6035 16.2504 56.11 15.7344 55.5 15.7344C54.89 15.7344 54.3965 16.2504 54.3965 16.8867V27.2281C54.3965 27.8644 54.89 28.3804 55.5 28.3804Z" fill="#3E3E3E"/>
<path d="M69.7421 32.0827C70.2703 32.3818 70.9445 32.1822 71.2367 31.6162L75.9494 22.5005C76.2392 21.9406 76.0388 21.2412 75.5034 20.939C74.9666 20.6373 74.2974 20.8457 74.0076 21.4055L69.295 30.5212C69.005 31.081 69.2056 31.7805 69.7421 32.0827Z" fill="#3E3E3E"/>
</svg>
