<svg width="112" height="107" viewBox="0 0 112 107" fill="none" xmlns="http://www.w3.org/2000/svg">
<path d="M97.9406 103.883C91.2164 107.852 82.4564 106.269 77.0686 100.108C73.429 95.9439 71.3931 90.1969 67.9795 85.7894C61.5844 77.5343 50.2951 75.3427 42.008 80.7242C32.1953 87.1177 26.2025 103.915 14.1651 104.467C7.44085 104.783 0.96334 98.3059 0.099656 90.4163C-0.764028 82.5022 4.08899 74.2956 10.6694 72.5667C20.354 69.9553 22.862 64.5477 13.4866 52.9883C8.69107 47.1353 5.47547 40.5957 10.546 32.7035C15.1773 25.6155 25.3536 22.9872 34.0501 29.2942C48.4488 39.781 36.2372 38.7656 47.8071 19.3103C58.713 0.793937 70.9246 13.8328 78.57 14.854C85.7259 15.8525 92.7792 10.5437 99.8942 11.9317C110.913 14.0885 115.228 30.3821 107.173 39.5951C102.012 45.5124 93.7662 45.8534 88.0288 50.9185C83.3684 55.0431 84.08 60.2543 88.5841 62.1688C117.219 74.3428 108.788 97.4202 97.9406 103.883Z" fill="#FEEFE6"/>
<path d="M22.5364 0.00213876C16.7075 0.115518 14.3257 7.81869 21.5939 14.1758C29.5374 21.1238 35.4342 15.9519 35.3648 11.0408C35.3022 6.62769 29.7396 -0.137871 22.5364 0.00213876Z" fill="#FEEFE6"/>
<path d="M89.8838 95.5182C89.1001 73.9636 74.0792 56.7695 55.6593 56.7695C37.2495 56.7695 22.2291 73.9633 21.4453 95.5182H89.8838Z" fill="white"/>
<path d="M49.9474 95.5178C49.9793 95.1466 49.996 94.7698 49.996 94.3885C49.996 88.3164 45.8367 83.3887 40.6943 83.3887C35.5518 83.3887 31.3926 88.3164 31.3926 94.3885C31.3926 94.7698 31.4091 95.1466 31.4411 95.5178H49.9474Z" fill="#FEEFE6"/>
<path d="M57.9923 70.9062C57.9923 73.121 56.4707 74.9203 54.5899 74.9203C52.7172 74.9203 51.1953 73.1208 51.1953 70.9062C51.1953 68.6821 52.7169 66.8828 54.5899 66.8828C56.4707 66.8828 57.9923 68.6824 57.9923 70.9062Z" fill="#FEEFE6"/>
<path d="M75.0109 85.0109C75.0109 87.3644 73.3989 89.2708 71.4088 89.2708C69.4187 89.2708 67.8066 87.3644 67.8066 85.0109C67.8066 82.6573 69.4187 80.7441 71.4088 80.7441C73.3989 80.7441 75.0109 82.6573 75.0109 85.0109Z" fill="#EC3434"/>
<path d="M76.8505 12.8066V31.429C69.7883 23.6077 62.7263 39.2503 55.6641 31.429C55.6641 25.2216 55.6641 19.014 55.6641 12.8066C62.7263 20.6279 69.7885 4.98534 76.8505 12.8066Z" fill="#EC3434"/>
<path d="M56.7857 55.4743V34.0246C60.1244 36.1482 63.3485 34.505 66.7324 32.6314C70.1526 30.7366 73.107 29.1 76.0851 32.3985C76.4106 32.759 76.8855 32.8576 77.297 32.6467C77.7069 32.4362 77.9719 31.9577 77.9719 31.4288V12.8061C77.9719 12.4388 77.8429 12.0874 77.6165 11.8364C73.5323 7.31359 69.4156 9.59303 65.783 11.6035C62.363 13.4983 59.4088 15.1349 56.4303 11.8364C56.1041 11.4751 55.6281 11.377 55.2184 11.5882C54.8085 11.7986 54.5435 12.2772 54.5435 12.8061V55.4743C36.0586 56.1483 21.1248 73.4625 20.3253 95.462C20.2979 96.2166 20.8071 96.8468 21.4452 96.8468H89.8835C90.5217 96.8468 91.0311 96.2169 91.0035 95.462C90.2042 73.4665 75.2717 56.1543 56.7857 55.4743ZM66.7328 14.0087C70.017 12.1889 72.8713 10.6087 75.7297 13.4049V28.8274C72.2761 26.6307 68.8554 28.5239 65.7825 30.2259C62.4979 32.045 59.6426 33.6241 56.7857 30.8297V15.4073C60.2393 17.6042 63.6593 15.7107 66.7328 14.0087ZM32.5146 94.1911C32.6041 88.9488 36.2385 84.7168 40.6934 84.7168C45.1483 84.7168 48.783 88.9488 48.8723 94.1911H32.5146ZM51.1079 94.1911C51.0173 87.4857 46.3843 82.0614 40.6934 82.0614C35.0025 82.0614 30.3695 87.4857 30.2789 94.1911H22.636C23.9733 73.8414 38.2589 58.0971 55.659 58.0971C73.065 58.0971 87.3555 73.8414 88.6928 94.1911H51.1079Z" fill="black"/>
<path d="M54.5901 65.5566C52.1002 65.5566 50.0742 67.9568 50.0742 70.9079C50.0742 73.8536 52.1002 76.2496 54.5901 76.2496C57.0841 76.2496 59.1134 73.8536 59.1134 70.9079C59.1134 67.9568 57.0843 65.5566 54.5901 65.5566ZM54.5901 73.5942C53.3366 73.5942 52.3166 72.3892 52.3166 70.9076C52.3166 69.421 53.3366 68.2116 54.5901 68.2116C55.8477 68.2116 56.871 69.4208 56.871 70.9076C56.871 72.3894 55.8477 73.5942 54.5901 73.5942Z" fill="black"/>
<path d="M71.4088 79.418C68.8043 79.418 66.6855 81.9273 66.6855 85.012C66.6855 88.0925 68.8046 90.5992 71.4088 90.5992C74.0134 90.5992 76.1324 88.0925 76.1324 85.012C76.1324 81.9271 74.0134 79.418 71.4088 79.418ZM71.4088 87.9438C70.041 87.9438 68.9279 86.6283 68.9279 85.0118C68.9279 83.391 70.041 82.0729 71.4088 82.0729C72.777 82.0729 73.89 83.391 73.89 85.0118C73.89 86.6283 72.777 87.9438 71.4088 87.9438Z" fill="black"/>
</svg>
